<svg width="225" height="315" viewBox="0 0 225 315" fill="none" xmlns="http://www.w3.org/2000/svg">
<path d="M144.643 238.51V148.08H8.99902V238.51L20.3027 238.51L144.643 238.51Z" fill="#F5703D"/>
<path d="M8.99902 148.08C8.99902 116.108 8.99903 100.122 18.9314 90.1901C28.8637 80.2578 44.8495 80.2578 76.8212 80.2578C108.793 80.2578 124.778 80.2578 134.711 90.1901C144.643 100.122 144.643 116.108 144.643 148.08M8.99902 148.08V238.51M8.99902 148.08H144.643M144.643 148.08V238.51M144.643 238.51C144.643 270.481 144.643 286.467 134.711 296.399C124.778 306.332 108.793 306.332 76.8212 306.332C44.8495 306.332 28.8637 306.332 18.9314 296.399C8.99903 286.467 8.99902 270.481 8.99902 238.51M144.643 238.51L20.3027 238.51L8.99902 238.51" stroke="#F5703D" stroke-width="16.9556" stroke-linecap="round"/>
<path d="M122.031 181.992C122.031 190.821 122.031 204.6 122.031 204.6" stroke="white" stroke-width="16.9556" stroke-linecap="round"/>
<path d="M185.345 77.9775C205.852 77.9775 222.477 61.3527 222.477 40.8454C222.477 20.338 205.852 3.71338 185.345 3.71338C164.837 3.71338 148.213 20.338 148.213 40.8454C148.213 46.7855 149.608 52.3994 152.087 57.3785C152.746 58.7015 152.966 60.2139 152.584 61.6416L150.372 69.9076C149.412 73.4957 152.695 76.7781 156.283 75.8183L164.549 73.6067C165.977 73.2246 167.489 73.444 168.812 74.1028C173.791 76.5828 179.405 77.9775 185.345 77.9775Z" fill="#FFFDFD" stroke="#23211F" stroke-width="3.14194"/>
<path d="M206.005 40.9365C206.005 52.2933 196.798 61.4999 185.441 61.4999C174.084 61.4999 164.878 52.2933 164.878 40.9365C164.878 29.5796 174.084 20.373 185.441 20.373C196.798 20.373 206.005 29.5796 206.005 40.9365Z" fill="#FFE600" stroke="#23211F" stroke-width="3.08451"/>
<path d="M179.272 49.1616C181.021 50.4577 183.148 51.218 185.441 51.218C187.735 51.218 189.862 50.4577 191.611 49.1616" stroke="#23211F" stroke-width="3.08451" stroke-linecap="round"/>
<path d="M193.666 37.8516C193.666 39.5551 192.746 40.9361 191.61 40.9361C190.474 40.9361 189.554 39.5551 189.554 37.8516C189.554 36.1481 190.474 34.7671 191.61 34.7671C192.746 34.7671 193.666 36.1481 193.666 37.8516Z" fill="#23211F"/>
<path d="M179.272 40.9361C180.408 40.9361 181.329 39.5551 181.329 37.8516C181.329 36.1481 180.408 34.7671 179.272 34.7671C178.136 34.7671 177.216 36.1481 177.216 37.8516C177.216 39.5551 178.136 40.9361 179.272 40.9361Z" fill="#23211F"/>
</svg>
