<svg width="49" height="48" viewBox="0 0 49 48" fill="none" xmlns="http://www.w3.org/2000/svg">
<path fill-rule="evenodd" clip-rule="evenodd" d="M24.5 48C37.7547 48 48.5 37.2547 48.5 24C48.5 10.7452 37.7547 0 24.5 0C11.2452 0 0.5 10.7452 0.5 24C0.5 37.2547 11.2452 48 24.5 48ZM21.7671 17.672L21.4525 18.2364C21.1069 18.8562 20.9341 19.1662 20.6648 19.3706C20.3953 19.5751 20.0598 19.6512 19.3888 19.8029L18.7779 19.9411C16.4167 20.4754 15.236 20.7425 14.9551 21.6458C14.6743 22.549 15.4788 23.4899 17.088 25.3717L17.0889 25.3728L17.5054 25.8598L17.5062 25.8607C17.9631 26.395 18.1916 26.6623 18.2944 26.993C18.3973 27.324 18.3627 27.6806 18.2936 28.3944L18.2306 29.0443C17.9872 31.5557 17.8656 32.8116 18.6009 33.3698C19.3363 33.9281 20.4418 33.419 22.6527 32.4012L23.2246 32.1377L23.2261 32.137C23.8535 31.8483 24.1674 31.7038 24.5 31.7038C24.8326 31.7038 25.1465 31.8483 25.7739 32.137L25.7754 32.1377L26.3473 32.4012C28.5582 33.419 29.6636 33.9281 30.399 33.3698C31.1344 32.8118 31.0127 31.5564 30.7695 29.0464L30.7693 29.0443L30.7064 28.3944C30.6373 27.6806 30.6027 27.324 30.7057 26.993C30.8083 26.6623 31.0369 26.395 31.4938 25.8607L31.4946 25.8598L31.9112 25.3728L31.9127 25.3711C33.5214 23.4897 34.3258 22.5489 34.0448 21.6458C33.764 20.7425 32.5834 20.4754 30.2221 19.9411L29.611 19.8029C28.9402 19.6512 28.6047 19.5751 28.3352 19.3706C28.0659 19.1662 27.8931 18.8563 27.5475 18.2364L27.2329 17.672C26.017 15.4907 25.4089 14.4 24.5 14.4C23.5911 14.4 22.983 15.4907 21.7671 17.672Z" fill="#FD6023"/>
<path d="M21.7671 17.672L21.4525 18.2364C21.1069 18.8562 20.9341 19.1662 20.6648 19.3706C20.3953 19.5751 20.0598 19.6512 19.3888 19.8029L18.7779 19.9411C16.4167 20.4754 15.236 20.7425 14.9551 21.6458C14.6743 22.549 15.4788 23.4899 17.088 25.3717L17.0889 25.3728L17.5054 25.8598L17.5062 25.8607C17.9631 26.395 18.1916 26.6623 18.2944 26.993C18.3973 27.324 18.3627 27.6806 18.2936 28.3944L18.2306 29.0443C17.9872 31.5557 17.8656 32.8116 18.6009 33.3698C19.3363 33.9281 20.4418 33.419 22.6527 32.4012L23.2246 32.1377L23.2261 32.137C23.8535 31.8483 24.1674 31.7038 24.5 31.7038C24.8326 31.7038 25.1465 31.8483 25.7739 32.137L25.7754 32.1377L26.3473 32.4012C28.5582 33.419 29.6636 33.9281 30.399 33.3698C31.1344 32.8118 31.0127 31.5564 30.7695 29.0464L30.7693 29.0443L30.7064 28.3944C30.6373 27.6806 30.6027 27.324 30.7057 26.993C30.8083 26.6623 31.0369 26.395 31.4938 25.8607L31.4946 25.8598L31.9112 25.3728L31.9127 25.3711C33.5214 23.4897 34.3258 22.5489 34.0448 21.6458C33.764 20.7425 32.5834 20.4754 30.2221 19.9411L29.611 19.8029C28.9402 19.6512 28.6047 19.5751 28.3352 19.3706C28.0659 19.1662 27.8931 18.8563 27.5475 18.2364L27.2329 17.672C26.017 15.4907 25.4089 14.4 24.5 14.4C23.5911 14.4 22.983 15.4907 21.7671 17.672Z" fill="#F5F13D"/>
<path d="M24.5 0.599609C37.4234 0.599609 47.9004 11.0765 47.9004 24C47.9004 36.9234 37.4234 47.4004 24.5 47.4004C11.5765 47.4004 1.09961 36.9234 1.09961 24C1.09961 11.0765 11.5765 0.599609 24.5 0.599609ZM24.5 13.7998C23.7578 13.7998 23.2234 14.2647 22.7725 14.8535C22.4345 15.2949 22.0795 15.8916 21.6709 16.6152L21.2432 17.3799L20.9287 17.9443C20.557 18.611 20.4474 18.782 20.3018 18.8926C20.1952 18.9734 20.0665 19.0242 19.7041 19.1133L19.2568 19.2178L18.6455 19.3555C17.4853 19.618 16.5449 19.8292 15.8662 20.0967C15.2195 20.3516 14.6752 20.7095 14.4277 21.3379L14.3818 21.4678C14.1633 22.1707 14.4046 22.8251 14.8047 23.4609C15.2009 24.0904 15.8401 24.8359 16.6318 25.7617L16.6328 25.7627L17.0498 26.25V26.251C17.5389 26.8229 17.6639 26.9853 17.7217 27.1709C17.7656 27.3122 17.7714 27.4676 17.7402 27.8584L17.6963 28.3369L17.6338 28.9863C17.514 30.2225 17.4158 31.2154 17.4492 31.9658C17.4827 32.7173 17.6528 33.4032 18.2383 33.8477C18.8336 34.2995 19.532 34.2564 20.2393 34.0537C20.7638 33.9034 21.3889 33.6364 22.127 33.3018L22.9033 32.9463L23.4756 32.6826H23.4766V32.6816C24.1542 32.3697 24.3297 32.3037 24.5 32.3037C24.6703 32.3037 24.8458 32.3697 25.5234 32.6816V32.6826H25.5244L26.0967 32.9463C27.1827 33.4463 28.0613 33.8533 28.7607 34.0537C29.468 34.2564 30.1664 34.2996 30.7617 33.8477C31.3472 33.4033 31.5173 32.718 31.5508 31.9668C31.5842 31.2168 31.4869 30.2246 31.3672 28.9893L31.3662 28.9873V28.9863L31.3037 28.3369L31.2607 27.8584C31.2296 27.4676 31.2344 27.3121 31.2783 27.1709C31.3359 26.9855 31.4599 26.8223 31.9492 26.25H31.9502L32.3672 25.7627L32.3691 25.7607C33.1605 24.8353 33.7993 24.0902 34.1953 23.4609C34.5705 22.8648 34.8057 22.2523 34.6533 21.5986L34.6182 21.4678L34.5723 21.3379C34.3248 20.7095 33.7805 20.3516 33.1338 20.0967C32.4551 19.8292 31.5148 19.618 30.3545 19.3555L29.7432 19.2178L29.2949 19.1133C28.9332 19.0243 28.8047 18.9733 28.6982 18.8926L28.6445 18.8477C28.521 18.7317 28.3965 18.5277 28.0713 17.9443L27.7568 17.3799C27.1587 16.3068 26.6782 15.442 26.2275 14.8535C25.7766 14.2647 25.2422 13.7998 24.5 13.7998ZM24.5 15C24.6667 15 24.8911 15.0812 25.2754 15.583C25.6599 16.0852 26.0915 16.856 26.709 17.9639L27.0234 18.5283C27.303 19.0298 27.5191 19.4359 27.832 19.7295L27.9727 19.8486C28.3695 20.1497 28.8591 20.2476 29.4785 20.3877L30.0898 20.5264C31.2906 20.798 32.1212 20.9875 32.6934 21.2129C33.2542 21.4339 33.4116 21.6308 33.4717 21.8242C33.5339 22.0241 33.5136 22.2918 33.1797 22.8223C32.9262 23.2251 32.5437 23.7007 32.0234 24.3164L31.457 24.9814H31.4561L31.4551 24.9824L31.04 25.4688L31.0381 25.4707C30.6138 25.9669 30.2807 26.3387 30.1328 26.8145C29.9855 27.288 30.0451 27.7885 30.1094 28.4521L30.1719 29.1025V29.1045C30.2953 30.3785 30.3803 31.2686 30.3516 31.9131C30.3229 32.5565 30.186 32.7779 30.0361 32.8916C29.8961 32.9979 29.6738 33.0662 29.0918 32.8994C28.5021 32.7305 27.723 32.3741 26.5986 31.8564L26.0264 31.5928H26.0254L26.0244 31.5918C25.4475 31.3263 24.9948 31.1035 24.5 31.1035C24.129 31.1035 23.7815 31.2288 23.3877 31.4033L22.9756 31.5918L22.9746 31.5928H22.9736L22.4014 31.8564C21.2771 32.3741 20.4979 32.7305 19.9082 32.8994C19.3988 33.0454 19.1649 33.0117 19.0205 32.9297L18.9639 32.8916L18.9082 32.8438C18.7812 32.7164 18.6736 32.4763 18.6484 31.9131C18.6269 31.4294 18.6685 30.807 18.7432 29.9883L18.8281 29.1025L18.8906 28.4521C18.9549 27.7885 19.0144 27.2879 18.8672 26.8145C18.7191 26.3388 18.3863 25.967 17.9619 25.4707H17.9629L17.9619 25.4697H17.9609L17.5449 24.9824L17.5439 24.9814C16.7266 24.0256 16.1584 23.3594 15.8203 22.8223C15.528 22.3578 15.4756 22.0948 15.5088 21.9023L15.5283 21.8242C15.5885 21.6308 15.7458 21.4339 16.3066 21.2129C16.7357 21.0438 17.3103 20.8953 18.0771 20.7168L18.9102 20.5264L19.5215 20.3877C20.141 20.2476 20.6305 20.1497 21.0273 19.8486C21.3221 19.6248 21.5293 19.3165 21.749 18.9346L21.9766 18.5283L22.291 17.9639C22.9085 16.856 23.3401 16.0852 23.7246 15.583C24.1089 15.0812 24.3333 15 24.5 15Z" stroke="black" stroke-width="1.2"/>
</svg>
