<svg width="89" height="106" viewBox="0 0 89 106" fill="none" xmlns="http://www.w3.org/2000/svg">
<path d="M19.7417 53.8753L36.8786 36.7388M50.5879 50.448L33.4513 67.5851" stroke="#23211F" stroke-width="6.625"/>
<path d="M-1.84373 68.9851C-5.83729 64.9915 -7.83402 62.9948 -8.1188 60.5563C-8.1824 60.0122 -8.1824 59.4623 -8.1188 58.9177C-7.83402 56.4797 -5.83729 54.483 -1.84378 50.4894C2.14973 46.4959 4.1465 44.4991 6.5849 44.2142C7.12921 44.1506 7.67908 44.1506 8.22339 44.2142C10.6618 44.4991 12.6586 46.4959 16.6521 50.4894L38.5106 72.3479C42.5042 76.3415 44.5009 78.3383 44.7858 80.7767C44.8494 81.3208 44.8494 81.8707 44.7858 82.4153C44.5009 84.8537 42.5042 86.8501 38.5106 90.8436C34.5171 94.8372 32.5207 96.8339 30.0823 97.1188C29.5377 97.1824 28.9878 97.1824 28.4437 97.1188C26.0052 96.8339 24.0084 94.8372 20.0149 90.8436L-1.84373 68.9851Z" fill="#D9D9D9" stroke="#23211F" stroke-width="6.625"/>
<path d="M33.4894 33.6521C29.4959 29.6586 27.4991 27.6618 27.2142 25.2234C27.1506 24.6791 27.1506 24.1292 27.2142 23.5849C27.4991 21.1465 29.4959 19.1498 33.4894 15.1562C37.483 11.1627 39.4797 9.16598 41.9177 8.8812C42.4623 8.8176 43.0122 8.8176 43.5563 8.8812C45.9948 9.16598 47.9915 11.1627 51.9851 15.1562L73.8436 37.0149C77.8372 41.0084 79.8339 43.0052 80.1188 45.4437C80.1824 45.9878 80.1824 46.5377 80.1188 47.0823C79.8339 49.5207 77.8372 51.5171 73.8436 55.5106C69.8501 59.5042 67.8537 61.5009 65.4153 61.7858C64.8707 61.8494 64.3208 61.8494 63.7767 61.7858C61.3383 61.5009 59.3415 59.5042 55.3479 55.5106L33.4894 33.6521Z" fill="#D9D9D9" stroke="#23211F" stroke-width="6.625"/>
<path d="M62.582 11.0332L76.2914 24.7426" stroke="#23211F" stroke-width="6.625" stroke-linecap="round" stroke-linejoin="round"/>
<path d="M-5.96924 79.582L7.74014 93.2914" stroke="#23211F" stroke-width="6.625" stroke-linecap="round" stroke-linejoin="round"/>
</svg>
