<svg width="80" height="105" viewBox="0 0 80 105" fill="none" xmlns="http://www.w3.org/2000/svg">
<path d="M52.5 24.0573L50.0977 26.2924C50.7185 26.9596 51.5887 27.3386 52.5 27.3386C53.4113 27.3386 54.2815 26.9596 54.9023 26.2924L52.5 24.0573ZM41.2812 82.2042C34.9381 77.0317 27.5316 70.2487 21.7385 62.8243C15.8832 55.3199 12.0312 47.6094 12.0312 40.5146H5.46875C5.46875 49.8148 10.4093 58.9721 16.5646 66.8611C22.7822 74.8298 30.6045 81.9654 37.1339 87.2902L41.2812 82.2042ZM12.0312 40.5146C12.0312 28.5714 17.5346 20.5826 24.5028 17.6835C31.3817 14.8217 40.9187 16.4274 50.0977 26.2924L54.9023 21.8221C44.3944 10.5291 32.0565 7.43327 21.9821 11.6245C11.997 15.7786 5.46875 26.5974 5.46875 40.5146H12.0312ZM67.8663 87.2902C74.3956 81.9658 82.2176 74.8298 88.4354 66.8611C94.5906 58.9726 99.5312 49.8148 99.5312 40.5144H92.9688C92.9688 47.6094 89.1166 55.3199 83.2615 62.8243C77.4686 70.2487 70.0621 77.0317 63.7188 82.2042L67.8663 87.2902ZM99.5312 40.5144C99.5312 26.597 93.0029 15.7781 83.0178 11.6242C72.9435 7.43305 60.6056 10.5292 50.0977 21.8221L54.9023 26.2924C64.0815 16.4274 73.6181 14.8216 80.4974 17.6832C87.4654 20.5821 92.9688 28.5709 92.9688 40.5144H99.5312ZM37.1339 87.2902C42.6943 91.8244 46.5544 95.1564 52.5 95.1564V88.5939C49.3434 88.5939 47.3756 87.1738 41.2812 82.2042L37.1339 87.2902ZM63.7188 82.2042C57.6244 87.1738 55.657 88.5939 52.5 88.5939V95.1564C58.4456 95.1564 62.3057 91.8244 67.8663 87.2902L63.7188 82.2042Z" fill="#1C274C"/>
<path d="M52.5 27.3386C51.5887 27.3386 50.7185 26.9596 50.0977 26.2924C40.9187 16.4274 31.3817 14.8217 24.5028 17.6835C17.5346 20.5826 12.0312 28.5714 12.0312 40.5146C12.0312 47.6094 15.8832 55.3199 21.7385 62.8243C27.5316 70.2487 34.9381 77.0317 41.2812 82.2042C47.3756 87.1738 49.3434 88.5939 52.5 88.5939C55.657 88.5939 57.6244 87.1738 63.7188 82.2042C70.0621 77.0317 77.4686 70.2487 83.2615 62.8243C89.1166 55.3199 92.9688 47.6094 92.9688 40.5144C92.9688 28.5709 87.4654 20.5821 80.4974 17.6832C73.6181 14.8216 64.0815 16.4274 54.9023 26.2924C54.2815 26.9596 53.4113 27.3386 52.5 27.3386Z" fill="#FF8FAB"/>
<path d="M78.75 52.4997H75.2439C71.6139 52.4997 69.7992 52.4997 68.2946 53.3515C66.7905 54.2034 65.8564 55.7595 63.9892 58.8719L63.854 59.0972C62.1145 61.9965 61.2443 63.4464 59.9791 63.4224C58.7134 63.3987 57.8983 61.9174 56.2691 58.9546L48.8871 45.533C47.3677 42.7704 46.6082 41.3892 45.3946 41.3237C44.1814 41.2581 43.2775 42.5496 41.4695 45.1322L40.2313 46.9015C38.311 49.6446 37.3509 51.0162 35.9263 51.7577C34.5018 52.4997 32.8275 52.4997 29.4789 52.4997H26.25" stroke="#F84627" stroke-width="6.5625" stroke-linecap="round"/>
</svg>
