<svg width="117" height="161" viewBox="0 0 117 161" fill="none" xmlns="http://www.w3.org/2000/svg">
<path d="M96.7957 30.1291C96.7957 39.3338 89.3337 46.7957 80.1291 46.7957C70.9244 46.7957 63.4624 39.3338 63.4624 30.1291C63.4624 20.9243 70.9244 13.4624 80.1291 13.4624C89.3337 13.4624 96.7957 20.9243 96.7957 30.1291Z" fill="#FAE0C2" stroke="#FFBD72" stroke-width="10"/>
<path d="M140.129 113.463L132.411 110.863C130.897 110.353 129.456 109.641 128.128 108.746L127.453 108.292C122.877 105.21 120.129 100.021 120.129 94.4642C120.129 78.2162 108.505 64.3503 92.6441 61.6793L86.7054 60.6792C83.4627 60.1286 76.7961 60.1295 73.5534 60.6792L67.6147 61.6793C51.7543 64.3503 40.1294 78.2162 40.1294 94.4642C40.1294 100.021 37.3811 105.21 32.8057 108.292L32.1309 108.746C30.8025 109.641 29.3619 110.353 27.8474 110.863L20.1294 113.463" stroke="#FAE0C2" stroke-width="10" stroke-linecap="round" stroke-linejoin="round"/>
<path d="M63.4621 106.796L57.2987 115.014C56.315 116.325 55.8231 116.981 55.2711 117.559C53.9046 118.987 52.2375 120.094 50.3907 120.799C49.6445 121.084 48.8491 121.283 47.2586 121.68L35.3025 124.669C30.3028 125.919 26.7954 130.411 26.7954 135.565C26.7954 141.768 31.8237 146.796 38.0265 146.796H42.5849C53.9728 146.796 65.0535 143.103 74.1641 136.27L86.7954 126.796M96.7954 106.796L101.64 113.255C103.929 116.309 105.075 117.835 106.561 118.963C107.007 119.302 107.475 119.613 107.961 119.893C109.578 120.825 111.429 121.288 115.131 122.213L124.955 124.669C129.955 125.919 133.462 130.411 133.462 135.565C133.462 141.768 128.434 146.796 122.231 146.796H115.979C112.231 146.796 110.357 146.796 108.498 146.692C103.008 146.385 97.5767 145.401 92.3287 143.76C90.5521 143.205 88.7974 142.547 85.2874 141.231L73.4621 136.796" stroke="#FAE0C2" stroke-width="10" stroke-linecap="round" stroke-linejoin="round"/>
</svg>
