<svg width="71" height="71" viewBox="0 0 71 71" fill="none" xmlns="http://www.w3.org/2000/svg">
<path fill-rule="evenodd" clip-rule="evenodd" d="M35.5 70.5C54.8298 70.5 70.5 54.8298 70.5 35.5C70.5 16.17 54.8298 0.5 35.5 0.5C16.17 0.5 0.5 16.17 0.5 35.5C0.5 54.8298 16.17 70.5 35.5 70.5ZM46 35.5C47.933 35.5 49.5 33.1494 49.5 30.25C49.5 27.3505 47.933 25 46 25C44.067 25 42.5 27.3505 42.5 30.25C42.5 33.1494 44.067 35.5 46 35.5ZM28.5 30.25C28.5 33.1494 26.933 35.5 25 35.5C23.067 35.5 21.5 33.1494 21.5 30.25C21.5 27.3505 23.067 25 25 25C26.933 25 28.5 27.3505 28.5 30.25ZM22.8911 54.5631C23.7545 55.7279 25.3985 55.9722 26.5631 55.1088C29.1125 53.2195 32.1894 52.125 35.5 52.125C38.8106 52.125 41.8875 53.2195 44.4369 55.1088C45.6017 55.9722 47.2456 55.7279 48.1087 54.5631C48.9722 53.3983 48.7279 51.7543 47.5631 50.8912C44.1597 48.3684 39.9975 46.875 35.5 46.875C31.0025 46.875 26.8403 48.3684 23.4369 50.8912C22.2722 51.7543 22.0279 53.3983 22.8911 54.5631Z" fill="#F19C34"/>
<path d="M22.8911 54.5631C23.7545 55.7279 25.3985 55.9722 26.5631 55.1088C29.1125 53.2195 32.1894 52.125 35.5 52.125C38.8106 52.125 41.8875 53.2195 44.4369 55.1088C45.6017 55.9722 47.2456 55.7279 48.1087 54.5631C48.9722 53.3983 48.7279 51.7543 47.5631 50.8912C44.1597 48.3684 39.9975 46.875 35.5 46.875C31.0025 46.875 26.8403 48.3684 23.4369 50.8912C22.2722 51.7543 22.0279 53.3983 22.8911 54.5631Z" fill="white"/>
<path d="M46 35.5C47.933 35.5 49.5 33.1494 49.5 30.25C49.5 27.3505 47.933 25 46 25C44.067 25 42.5 27.3505 42.5 30.25C42.5 33.1494 44.067 35.5 46 35.5Z" fill="white"/>
<path d="M28.5 30.25C28.5 33.1494 26.933 35.5 25 35.5C23.067 35.5 21.5 33.1494 21.5 30.25C21.5 27.3505 23.067 25 25 25C26.933 25 28.5 27.3505 28.5 30.25Z" fill="white"/>
<path d="M35.5 1.25C54.4156 1.25 69.75 16.5842 69.75 35.5C69.75 54.4156 54.4156 69.75 35.5 69.75C16.5842 69.75 1.25 54.4156 1.25 35.5C1.25 16.5842 16.5842 1.25 35.5 1.25ZM35.5 46.125C30.9788 46.125 26.786 47.5802 23.3232 50.0469L22.9902 50.2891C21.5398 51.3641 21.1996 53.3808 22.1885 54.8672L22.2891 55.0098C23.3643 56.4602 25.3809 56.8005 26.8672 55.8115L27.0098 55.7109C29.4371 53.9122 32.359 52.875 35.5 52.875C38.4447 52.875 41.1967 53.7867 43.5293 55.3828L43.9902 55.7109C45.441 56.7864 47.4701 56.5256 48.6045 55.1465L48.7109 55.0098C49.7864 53.559 49.5256 51.5299 48.1465 50.3955L48.0098 50.2891L47.6768 50.0469C44.214 47.5802 40.0212 46.125 35.5 46.125ZM35.5 47.625C39.5576 47.625 43.3332 48.8876 46.4932 51.0498L47.1162 51.4941C47.8962 52.0721 48.0986 53.1401 47.6123 53.957L47.5059 54.1162C46.9279 54.8962 45.8599 55.0986 45.043 54.6123L44.8838 54.5059L44.376 54.1445C41.807 52.3869 38.7626 51.375 35.5 51.375C32.2374 51.375 29.193 52.3868 26.624 54.1445L26.1162 54.5059C25.3362 55.0841 24.2554 54.9673 23.6152 54.2646L23.4941 54.1162L23.3877 53.957C22.9338 53.1944 23.0795 52.2126 23.7354 51.6152L23.8838 51.4941C27.1652 49.0618 31.1721 47.625 35.5 47.625ZM27.75 30.25C27.75 31.5722 27.391 32.7352 26.8506 33.5459C26.3066 34.3619 25.6377 34.75 25 34.75C24.3623 34.75 23.6934 34.3619 23.1494 33.5459C22.6428 32.7858 22.2953 31.7163 22.2539 30.4961L22.25 30.25C22.25 28.9278 22.609 27.7648 23.1494 26.9541C23.6934 26.1381 24.3623 25.75 25 25.75C25.6377 25.75 26.3066 26.1381 26.8506 26.9541C27.391 27.7648 27.75 28.9278 27.75 30.25ZM48.75 30.25C48.75 31.5722 48.391 32.7352 47.8506 33.5459C47.3066 34.3619 46.6377 34.75 46 34.75C45.3623 34.75 44.6934 34.3619 44.1494 33.5459C43.6428 32.7858 43.2953 31.7163 43.2539 30.4961L43.25 30.25C43.25 28.9277 43.609 27.7648 44.1494 26.9541C44.6934 26.1381 45.3623 25.75 46 25.75C46.6377 25.75 47.3066 26.1381 47.8506 26.9541C48.391 27.7648 48.75 28.9277 48.75 30.25ZM29.25 30.25C29.25 28.6729 28.8248 27.2114 28.0986 26.1221C27.3759 25.0379 26.2953 24.25 25 24.25C23.7047 24.25 22.6241 25.0379 21.9014 26.1221C21.1752 27.2114 20.75 28.6729 20.75 30.25C20.75 31.8271 21.1752 33.2885 21.9014 34.3779C22.6241 35.4621 23.7047 36.25 25 36.25C26.2953 36.25 27.3759 35.4621 28.0986 34.3779C28.7795 33.3566 29.1958 32.0081 29.2451 30.5439L29.25 30.25ZM50.25 30.25C50.25 28.6729 49.8248 27.2115 49.0986 26.1221C48.3759 25.0379 47.2953 24.25 46 24.25C44.7047 24.25 43.6241 25.0379 42.9014 26.1221C42.1752 27.2115 41.75 28.6729 41.75 30.25C41.75 31.8271 42.1752 33.2885 42.9014 34.3779C43.6241 35.4621 44.7047 36.25 46 36.25C47.2953 36.25 48.3759 35.4621 49.0986 34.3779C49.7795 33.3565 50.1958 32.0081 50.2451 30.5439L50.25 30.25Z" stroke="black" stroke-width="1.5"/>
</svg>
