<svg width="40" height="40" viewBox="0 0 40 40" fill="none" xmlns="http://www.w3.org/2000/svg">
<path fill-rule="evenodd" clip-rule="evenodd" d="M19.9395 39.0557C30.7141 39.0557 39.4488 30.321 39.4488 19.5464C39.4488 8.77171 30.7141 0.0371094 19.9395 0.0371094C9.16478 0.0371094 0.430176 8.77171 0.430176 19.5464C0.430176 30.321 9.16478 39.0557 19.9395 39.0557ZM17.7179 14.4025L17.4622 14.8612C17.1812 15.3651 17.0408 15.6171 16.8219 15.7833C16.6028 15.9495 16.3301 16.0113 15.7847 16.1346L15.2881 16.247C13.3686 16.6813 12.4089 16.8984 12.1806 17.6327C11.9523 18.3669 12.6063 19.1317 13.9143 20.6614L13.9151 20.6623L14.2536 21.0582L14.2543 21.0589C14.6257 21.4933 14.8114 21.7105 14.895 21.9794C14.9787 22.2484 14.9506 22.5383 14.8943 23.1186L14.8432 23.6469C14.6453 25.6883 14.5464 26.7092 15.1442 27.163C15.742 27.6168 16.6406 27.203 18.4378 26.3756L18.9027 26.1614L18.904 26.1609C19.4139 25.9261 19.6691 25.8087 19.9395 25.8087C20.2098 25.8087 20.465 25.9261 20.975 26.1609L20.9762 26.1614L21.4411 26.3756C23.2383 27.203 24.1369 27.6168 24.7347 27.163C25.3325 26.7094 25.2336 25.6889 25.0358 23.6485L25.0357 23.6469L24.9846 23.1186C24.9284 22.5383 24.9003 22.2484 24.984 21.9794C25.0674 21.7105 25.2532 21.4933 25.6246 21.0589L25.6253 21.0582L25.9639 20.6623L25.9652 20.6609C27.2728 19.1316 27.9267 18.3668 27.6983 17.6327C27.4701 16.8984 26.5104 16.6813 24.5909 16.247L24.0942 16.1346C23.5489 16.0113 23.2761 15.9495 23.0571 15.7833C22.8382 15.6171 22.6977 15.3651 22.4168 14.8612L22.161 14.4025C21.1727 12.6293 20.6783 11.7427 19.9395 11.7427C19.2007 11.7427 18.7063 12.6293 17.7179 14.4025Z" fill="#F5703D"/>
<path d="M17.7179 14.4025L17.4622 14.8612C17.1812 15.3651 17.0408 15.6171 16.8219 15.7833C16.6028 15.9495 16.3301 16.0113 15.7847 16.1346L15.2881 16.247C13.3686 16.6813 12.4089 16.8984 12.1806 17.6327C11.9523 18.3669 12.6063 19.1317 13.9143 20.6614L13.9151 20.6623L14.2536 21.0582L14.2543 21.0589C14.6257 21.4933 14.8114 21.7105 14.895 21.9794C14.9787 22.2484 14.9506 22.5383 14.8943 23.1186L14.8432 23.6469C14.6453 25.6883 14.5464 26.7092 15.1442 27.163C15.742 27.6168 16.6406 27.203 18.4378 26.3756L18.9027 26.1614L18.904 26.1609C19.4139 25.9261 19.6691 25.8087 19.9395 25.8087C20.2098 25.8087 20.465 25.9261 20.975 26.1609L20.9762 26.1614L21.4411 26.3756C23.2383 27.203 24.1369 27.6168 24.7347 27.163C25.3325 26.7094 25.2336 25.6889 25.0358 23.6485L25.0357 23.6469L24.9846 23.1186C24.9284 22.5383 24.9003 22.2484 24.984 21.9794C25.0674 21.7105 25.2532 21.4933 25.6246 21.0589L25.6253 21.0582L25.9639 20.6623L25.9652 20.6609C27.2728 19.1316 27.9267 18.3668 27.6983 17.6327C27.4701 16.8984 26.5104 16.6813 24.5909 16.247L24.0942 16.1346C23.5489 16.0113 23.2761 15.9495 23.0571 15.7833C22.8382 15.6171 22.6977 15.3651 22.4168 14.8612L22.161 14.4025C21.1727 12.6293 20.6783 11.7427 19.9395 11.7427C19.2007 11.7427 18.7063 12.6293 17.7179 14.4025Z" fill="#F5F13D"/>
<path d="M19.9399 0.524414C30.445 0.524669 38.9614 9.04171 38.9614 19.5469C38.9612 30.0517 30.4448 38.5681 19.9399 38.5684C9.43478 38.5684 0.917735 30.0519 0.91748 19.5469C0.91748 9.04155 9.43462 0.524414 19.9399 0.524414ZM19.9399 11.2549C19.3366 11.2549 18.9012 11.6327 18.5347 12.1113C18.2601 12.47 17.9721 12.9551 17.6401 13.543L17.2915 14.165L17.0366 14.624C16.7346 15.1658 16.6452 15.3047 16.5269 15.3945C16.4402 15.4602 16.3359 15.5018 16.0415 15.5742L15.6772 15.6592L15.1802 15.7715C14.2372 15.9848 13.473 16.1566 12.9214 16.374C12.3955 16.5813 11.9525 16.8717 11.7515 17.3828L11.7144 17.4883C11.5369 18.0596 11.7329 18.5916 12.0581 19.1084C12.3802 19.6201 12.8999 20.2259 13.5435 20.9785L13.5444 20.9795L13.8823 21.374V21.375L13.8833 21.376C14.2808 21.8409 14.3822 21.9732 14.4292 22.124C14.4768 22.2772 14.4688 22.4506 14.4087 23.0713L14.3579 23.5996C14.2605 24.6047 14.1813 25.4124 14.2085 26.0225C14.2358 26.6331 14.3733 27.1905 14.8491 27.5518C15.3329 27.919 15.9003 27.8834 16.4751 27.7188C16.9017 27.5965 17.4108 27.3796 18.0112 27.1074L18.6421 26.8184L19.1069 26.6045H19.1079V26.6035C19.6586 26.35 19.8015 26.2969 19.9399 26.2969C20.0782 26.297 20.221 26.3503 20.771 26.6035V26.6045H20.772L21.2368 26.8184C22.1198 27.2249 22.8352 27.5558 23.4038 27.7188C23.9426 27.8731 24.475 27.9142 24.938 27.6162L25.0298 27.5518C25.5057 27.1905 25.6432 26.6331 25.6704 26.0225C25.6908 25.565 25.6515 24.9968 25.5894 24.3174L25.521 23.6016V23.5996L25.4702 23.0713L25.4351 22.6836C25.4182 22.4717 25.4143 22.345 25.4243 22.25L25.4497 22.124C25.4965 21.9733 25.5969 21.8402 25.9946 21.375H25.9956L26.3345 20.9795L26.3354 20.9775C26.9788 20.2251 27.4988 19.62 27.8208 19.1084C28.146 18.5917 28.3421 18.0596 28.1646 17.4883C27.9852 16.9112 27.5184 16.5951 26.9575 16.374C26.4059 16.1566 25.6418 15.9848 24.6987 15.7715L24.2017 15.6592L23.8374 15.5742C23.543 15.5018 23.4387 15.4602 23.3521 15.3945L23.2651 15.3125C23.1761 15.21 23.0689 15.0305 22.8423 14.624L22.5874 14.165L22.2388 13.543C21.9068 12.9551 21.6189 12.47 21.3442 12.1113C20.9778 11.6328 20.543 11.2551 19.9399 11.2549ZM19.9399 12.2305C20.0754 12.2306 20.2578 12.2966 20.5698 12.7041C20.8824 13.1123 21.2329 13.7391 21.7349 14.6396L21.9907 15.0986C22.218 15.5063 22.3936 15.8366 22.6479 16.0752L22.7622 16.1719C23.0849 16.4167 23.4832 16.4965 23.9868 16.6104L24.4829 16.7227C25.4592 16.9435 26.135 17.098 26.6001 17.2812C27.0558 17.4609 27.184 17.6201 27.2329 17.7773C27.2835 17.9399 27.2661 18.1576 26.9946 18.5889C26.7198 19.0254 26.2585 19.5669 25.5942 20.3438L25.5933 20.3457L25.2544 20.7412V20.7422C24.9524 21.0953 24.7068 21.3706 24.5698 21.6934L24.5181 21.835C24.3985 22.2198 24.4473 22.6267 24.4995 23.166L24.5503 23.6934V23.6953C24.6507 24.7311 24.7202 25.4555 24.6968 25.9795C24.6763 26.437 24.5881 26.6319 24.4849 26.7354L24.4399 26.7744C24.3261 26.8608 24.1452 26.9167 23.6724 26.7812C23.3128 26.6782 22.8661 26.4892 22.2798 26.2236L21.645 25.9326L21.1802 25.7188V25.7178H21.1792C20.7103 25.502 20.3421 25.3214 19.9399 25.3213C19.5376 25.3213 19.1688 25.5019 18.6997 25.7178H18.6987V25.7188L18.2339 25.9326C17.3197 26.3535 16.686 26.6439 16.2065 26.7812C15.7337 26.9167 15.5528 26.8608 15.439 26.7744C15.3172 26.6819 15.2054 26.5017 15.1821 25.9785C15.1646 25.5853 15.1996 25.0796 15.2603 24.4141L15.3286 23.6943L15.3794 23.166C15.4251 22.694 15.4681 22.3235 15.3979 21.9805L15.3608 21.835L15.3091 21.6934C15.172 21.3707 14.9266 21.0954 14.6245 20.7422H14.6255L14.6245 20.7412L14.2856 20.3457V20.3447L14.2847 20.3438H14.2837C13.6197 19.5672 13.159 19.0254 12.8843 18.5889C12.6128 18.1575 12.5954 17.9399 12.646 17.7773C12.6949 17.6201 12.8232 17.4609 13.2788 17.2812C13.6276 17.1438 14.0947 17.0221 14.7183 16.877L15.396 16.7227L15.8921 16.6104C16.3328 16.5107 16.6925 16.4367 16.9917 16.2559L17.1167 16.1719C17.3562 15.99 17.5241 15.7391 17.7026 15.4287L17.8882 15.0986L18.144 14.6396C18.646 13.7391 18.9965 13.1123 19.3091 12.7041C19.6215 12.2962 19.8044 12.2305 19.9399 12.2305Z" stroke="black" stroke-width="0.975465"/>
</svg>
