<svg width="40" height="40" viewBox="0 0 40 40" fill="none" xmlns="http://www.w3.org/2000/svg">
<path fill-rule="evenodd" clip-rule="evenodd" d="M20.1636 39.0557C30.9382 39.0557 39.6729 30.321 39.6729 19.5464C39.6729 8.77171 30.9382 0.0371094 20.1636 0.0371094C9.3889 0.0371094 0.654297 8.77171 0.654297 19.5464C0.654297 30.321 9.3889 39.0557 20.1636 39.0557ZM17.9421 14.4025L17.6863 14.8612C17.4054 15.3651 17.2649 15.6171 17.046 15.7833C16.8269 15.9495 16.5542 16.0113 16.0088 16.1346L15.5122 16.247C13.5928 16.6813 12.633 16.8984 12.4047 17.6327C12.1764 18.3669 12.8304 19.1317 14.1384 20.6614L14.1392 20.6623L14.4777 21.0582L14.4784 21.0589C14.8498 21.4933 15.0356 21.7105 15.1192 21.9794C15.2028 22.2484 15.1747 22.5383 15.1185 23.1186L15.0673 23.6469C14.8695 25.6883 14.7705 26.7092 15.3683 27.163C15.9661 27.6168 16.8648 27.203 18.662 26.3756L19.1269 26.1614L19.1281 26.1609C19.638 25.9261 19.8932 25.8087 20.1636 25.8087C20.434 25.8087 20.6892 25.9261 21.1991 26.1609L21.2003 26.1614L21.6652 26.3756C23.4624 27.203 24.361 27.6168 24.9588 27.163C25.5566 26.7094 25.4577 25.6889 25.26 23.6485L25.2598 23.6469L25.2087 23.1186C25.1525 22.5383 25.1244 22.2484 25.2081 21.9794C25.2916 21.7105 25.4773 21.4933 25.8487 21.0589L25.8494 21.0582L26.1881 20.6623L26.1893 20.6609C27.497 19.1316 28.1508 18.3668 27.9224 17.6327C27.6942 16.8984 26.7345 16.6813 24.815 16.247L24.3183 16.1346C23.773 16.0113 23.5003 15.9495 23.2812 15.7833C23.0623 15.6171 22.9218 15.3651 22.6409 14.8612L22.3851 14.4025C21.3968 12.6293 20.9024 11.7427 20.1636 11.7427C19.4248 11.7427 18.9304 12.6293 17.9421 14.4025Z" fill="#7B7A79"/>
<path d="M17.9421 14.4025L17.6863 14.8612C17.4054 15.3651 17.2649 15.6171 17.046 15.7833C16.8269 15.9495 16.5542 16.0113 16.0088 16.1346L15.5122 16.247C13.5928 16.6813 12.633 16.8984 12.4047 17.6327C12.1764 18.3669 12.8304 19.1317 14.1384 20.6614L14.1392 20.6623L14.4777 21.0582L14.4784 21.0589C14.8498 21.4933 15.0356 21.7105 15.1192 21.9794C15.2028 22.2484 15.1747 22.5383 15.1185 23.1186L15.0673 23.6469C14.8695 25.6883 14.7705 26.7092 15.3683 27.163C15.9661 27.6168 16.8648 27.203 18.662 26.3756L19.1269 26.1614L19.1281 26.1609C19.638 25.9261 19.8932 25.8087 20.1636 25.8087C20.434 25.8087 20.6892 25.9261 21.1991 26.1609L21.2003 26.1614L21.6652 26.3756C23.4624 27.203 24.361 27.6168 24.9588 27.163C25.5566 26.7094 25.4577 25.6889 25.26 23.6485L25.2598 23.6469L25.2087 23.1186C25.1525 22.5383 25.1244 22.2484 25.2081 21.9794C25.2916 21.7105 25.4773 21.4933 25.8487 21.0589L25.8494 21.0582L26.1881 20.6623L26.1893 20.6609C27.497 19.1316 28.1508 18.3668 27.9224 17.6327C27.6942 16.8984 26.7345 16.6813 24.815 16.247L24.3183 16.1346C23.773 16.0113 23.5003 15.9495 23.2812 15.7833C23.0623 15.6171 22.9218 15.3651 22.6409 14.8612L22.3851 14.4025C21.3968 12.6293 20.9024 11.7427 20.1636 11.7427C19.4248 11.7427 18.9304 12.6293 17.9421 14.4025Z" fill="#ACABA3"/>
<path d="M20.1641 0.524414C30.6691 0.524669 39.1855 9.04171 39.1855 19.5469C39.1853 30.0517 30.6689 38.5681 20.1641 38.5684C9.6589 38.5684 1.14186 30.0519 1.1416 19.5469C1.1416 9.04155 9.65874 0.524414 20.1641 0.524414ZM20.1641 11.2549C19.5608 11.2549 19.1254 11.6327 18.7588 12.1113C18.4842 12.47 18.1962 12.9551 17.8643 13.543L17.5156 14.165L17.2607 14.624C16.9587 15.1658 16.8693 15.3047 16.751 15.3945C16.6644 15.4602 16.56 15.5018 16.2656 15.5742L15.9014 15.6592L15.4043 15.7715C14.4613 15.9848 13.6971 16.1566 13.1455 16.374C12.6197 16.5813 12.1767 16.8717 11.9756 17.3828L11.9385 17.4883C11.761 18.0596 11.957 18.5916 12.2822 19.1084C12.6043 19.6201 13.124 20.2259 13.7676 20.9785L13.7686 20.9795L14.1064 21.374V21.375L14.1074 21.376C14.505 21.8409 14.6064 21.9732 14.6533 22.124C14.7009 22.2772 14.693 22.4506 14.6328 23.0713L14.582 23.5996C14.4846 24.6047 14.4054 25.4124 14.4326 26.0225C14.4599 26.6331 14.5974 27.1905 15.0732 27.5518C15.557 27.919 16.1245 27.8834 16.6992 27.7188C17.1258 27.5965 17.635 27.3796 18.2354 27.1074L18.8662 26.8184L19.3311 26.6045H19.332V26.6035C19.8827 26.35 20.0256 26.2969 20.1641 26.2969C20.3024 26.297 20.4451 26.3503 20.9951 26.6035V26.6045H20.9961L21.4609 26.8184C22.344 27.2249 23.0593 27.5558 23.6279 27.7188C24.1667 27.8731 24.6991 27.9142 25.1621 27.6162L25.2539 27.5518C25.7298 27.1905 25.8673 26.6331 25.8945 26.0225C25.9149 25.565 25.8756 24.9968 25.8135 24.3174L25.7451 23.6016V23.5996L25.6943 23.0713L25.6592 22.6836C25.6423 22.4717 25.6384 22.345 25.6484 22.25L25.6738 22.124C25.7206 21.9733 25.821 21.8402 26.2188 21.375H26.2197L26.5586 20.9795L26.5596 20.9775C27.2029 20.2251 27.7229 19.62 28.0449 19.1084C28.3701 18.5917 28.5662 18.0596 28.3887 17.4883C28.2093 16.9112 27.7425 16.5951 27.1816 16.374C26.63 16.1566 25.8659 15.9848 24.9229 15.7715L24.4258 15.6592L24.0615 15.5742C23.7672 15.5018 23.6628 15.4602 23.5762 15.3945L23.4893 15.3125C23.4002 15.21 23.293 15.0305 23.0664 14.624L22.8115 14.165L22.4629 13.543C22.131 12.9551 21.843 12.47 21.5684 12.1113C21.2019 11.6328 20.7671 11.2551 20.1641 11.2549ZM20.1641 12.2305C20.2995 12.2306 20.4819 12.2966 20.7939 12.7041C21.1065 13.1123 21.457 13.7391 21.959 14.6396L22.2148 15.0986C22.4421 15.5063 22.6177 15.8366 22.8721 16.0752L22.9863 16.1719C23.309 16.4167 23.7073 16.4965 24.2109 16.6104L24.707 16.7227C25.6834 16.9435 26.3591 17.098 26.8242 17.2812C27.2799 17.4609 27.4081 17.6201 27.457 17.7773C27.5076 17.9399 27.4902 18.1576 27.2188 18.5889C26.944 19.0254 26.4826 19.5669 25.8184 20.3438L25.8174 20.3457L25.4785 20.7412V20.7422C25.1765 21.0953 24.9309 21.3706 24.7939 21.6934L24.7422 21.835C24.6226 22.2198 24.6714 22.6267 24.7236 23.166L24.7744 23.6934V23.6953C24.8748 24.7311 24.9443 25.4555 24.9209 25.9795C24.9004 26.437 24.8122 26.6319 24.709 26.7354L24.6641 26.7744C24.5502 26.8608 24.3693 26.9167 23.8965 26.7812C23.5369 26.6782 23.0902 26.4892 22.5039 26.2236L21.8691 25.9326L21.4043 25.7188V25.7178H21.4033C20.9345 25.502 20.5662 25.3214 20.1641 25.3213C19.7618 25.3213 19.3929 25.5019 18.9238 25.7178H18.9229V25.7188L18.458 25.9326C17.5438 26.3535 16.9101 26.6439 16.4307 26.7812C15.9578 26.9167 15.7769 26.8608 15.6631 26.7744C15.5413 26.6819 15.4296 26.5017 15.4062 25.9785C15.3887 25.5853 15.4237 25.0796 15.4844 24.4141L15.5527 23.6943L15.6035 23.166C15.6493 22.694 15.6922 22.3235 15.6221 21.9805L15.585 21.835L15.5332 21.6934C15.3962 21.3707 15.1507 21.0954 14.8486 20.7422H14.8496L14.8486 20.7412L14.5098 20.3457V20.3447L14.5088 20.3438H14.5078C13.8438 19.5672 13.3831 19.0254 13.1084 18.5889C12.8369 18.1575 12.8196 17.9399 12.8701 17.7773C12.919 17.6201 13.0473 17.4609 13.5029 17.2812C13.8517 17.1438 14.3188 17.0221 14.9424 16.877L15.6201 16.7227L16.1162 16.6104C16.5569 16.5107 16.9166 16.4367 17.2158 16.2559L17.3408 16.1719C17.5804 15.99 17.7482 15.7391 17.9268 15.4287L18.1123 15.0986L18.3682 14.6396C18.8701 13.7391 19.2206 13.1123 19.5332 12.7041C19.8456 12.2962 20.0286 12.2305 20.1641 12.2305Z" stroke="black" stroke-width="0.975465"/>
</svg>
