<svg width="18" height="21" viewBox="0 0 18 21" fill="none" xmlns="http://www.w3.org/2000/svg">
<g clip-path="url(#clip0_1024_209663)">
<path fill-rule="evenodd" clip-rule="evenodd" d="M6.83931 1.3641C6.14062 1.98372 6.14062 3.11723 6.14062 5.38325V16.3013C6.14062 18.5673 6.14062 19.7008 6.83931 20.3204C7.53799 20.9401 8.60627 20.7543 10.7428 20.3817L13.0454 19.9805C15.4113 19.5674 16.5942 19.3609 17.2968 18.4932C17.9994 17.6245 17.9994 16.3695 17.9994 13.8584V7.82617C17.9994 5.31605 17.9995 4.061 17.2978 3.19234C16.5942 2.32467 15.4103 2.11813 13.0444 1.70603L10.7438 1.30382C8.60726 0.931255 7.53898 0.745466 6.8403 1.36509M9.10533 9.03281C9.51446 9.03281 9.84651 9.37968 9.84651 9.80758V11.8769C9.84651 12.3049 9.51446 12.6517 9.10533 12.6517C8.6962 12.6517 8.36415 12.3049 8.36415 11.8769V9.80758C8.36415 9.37968 8.6962 9.03281 9.10533 9.03281Z" fill="#23211F"/>
<path d="M4.70444 3.42969C2.67066 3.43265 1.61028 3.47712 0.934326 4.15308C0.210938 4.87646 0.210938 6.04061 0.210938 8.37086V13.312C0.210938 15.6413 0.210938 16.8055 0.934326 17.5298C1.61028 18.2048 2.67066 18.2503 4.70444 18.2532C4.658 17.6366 4.658 16.925 4.658 16.1552V5.52771C4.658 4.75689 4.658 4.04536 4.70444 3.42969Z" fill="#23211F"/>
</g>
<defs>
<clipPath id="clip0_1024_209663">
<rect width="17.7882" height="20.16" fill="white" transform="translate(0.210938 0.757812)"/>
</clipPath>
</defs>
</svg>
