<svg width="71" height="71" viewBox="0 0 71 71" fill="none" xmlns="http://www.w3.org/2000/svg">
<path fill-rule="evenodd" clip-rule="evenodd" d="M35.5 70.5C54.8298 70.5 70.5 54.8298 70.5 35.5C70.5 16.17 54.8298 0.5 35.5 0.5C16.17 0.5 0.5 16.17 0.5 35.5C0.5 54.8298 16.17 70.5 35.5 70.5ZM22.8911 47.9369C23.7545 46.7721 25.3985 46.5278 26.5631 47.3913C29.1125 49.2805 32.1894 50.375 35.5 50.375C38.8106 50.375 41.8875 49.2805 44.4369 47.3913C45.6017 46.5278 47.2456 46.7721 48.1087 47.9369C48.9722 49.1017 48.7279 50.7457 47.5631 51.6088C44.1597 54.1316 39.9975 55.625 35.5 55.625C31.0025 55.625 26.8403 54.1316 23.4369 51.6088C22.2722 50.7457 22.0279 49.1017 22.8911 47.9369ZM49.5 30.25C49.5 33.1494 47.933 35.5 46 35.5C44.067 35.5 42.5 33.1494 42.5 30.25C42.5 27.3505 44.067 25 46 25C47.933 25 49.5 27.3505 49.5 30.25ZM25 35.5C26.933 35.5 28.5 33.1494 28.5 30.25C28.5 27.3505 26.933 25 25 25C23.067 25 21.5 27.3505 21.5 30.25C21.5 33.1494 23.067 35.5 25 35.5Z" fill="#40E893"/>
<path d="M25 35.5C26.933 35.5 28.5 33.1494 28.5 30.25C28.5 27.3505 26.933 25 25 25C23.067 25 21.5 27.3505 21.5 30.25C21.5 33.1494 23.067 35.5 25 35.5Z" fill="white"/>
<path d="M49.5 30.25C49.5 33.1494 47.933 35.5 46 35.5C44.067 35.5 42.5 33.1494 42.5 30.25C42.5 27.3505 44.067 25 46 25C47.933 25 49.5 27.3505 49.5 30.25Z" fill="white"/>
<path d="M22.8911 47.9369C23.7545 46.7721 25.3985 46.5278 26.5631 47.3913C29.1125 49.2805 32.1894 50.375 35.5 50.375C38.8106 50.375 41.8875 49.2805 44.4369 47.3913C45.6017 46.5278 47.2456 46.7721 48.1087 47.9369C48.9722 49.1017 48.7279 50.7457 47.5631 51.6088C44.1597 54.1316 39.9975 55.625 35.5 55.625C31.0025 55.625 26.8403 54.1316 23.4369 51.6088C22.2722 50.7457 22.0279 49.1017 22.8911 47.9369Z" fill="white"/>
<path d="M35.5 1.25C54.4156 1.25 69.75 16.5842 69.75 35.5C69.75 54.4156 54.4156 69.75 35.5 69.75C16.5842 69.75 1.25 54.4156 1.25 35.5C1.25 16.5842 16.5842 1.25 35.5 1.25ZM48.6045 47.3535C47.5068 46.019 45.5713 45.7313 44.1328 46.6885L43.9902 46.7891C41.5629 48.5878 38.641 49.625 35.5 49.625C32.359 49.625 29.4371 48.5878 27.0098 46.7891L26.8672 46.6885C25.4287 45.7313 23.4933 46.0192 22.3955 47.3535L22.2891 47.4902C21.2139 48.941 21.4745 50.9701 22.8535 52.1045L22.9902 52.2109C26.5157 54.8242 30.8329 56.375 35.5 56.375C40.0212 56.375 44.214 54.9198 47.6768 52.4531L48.0098 52.2109C49.4603 51.1359 49.8005 49.1192 48.8115 47.6328L48.7109 47.4902L48.6045 47.3535ZM23.4941 48.3838C24.0724 47.6037 25.1403 47.4014 25.957 47.8877L26.1162 47.9941C28.7876 49.9739 32.0198 51.125 35.5 51.125C38.7626 51.125 41.807 50.1131 44.376 48.3555L44.8838 47.9941C45.6638 47.4159 46.7438 47.5331 47.3838 48.2354L47.5059 48.3838C48.0841 49.1638 47.9669 50.2438 47.2646 50.8838L47.1162 51.0059C43.8348 53.4382 39.8279 54.875 35.5 54.875C31.1721 54.875 27.1652 53.4382 23.8838 51.0059L23.7354 50.8848C23.0795 50.2874 22.9338 49.3056 23.3877 48.543L23.4941 48.3838ZM27.75 30.25C27.75 31.5722 27.391 32.7352 26.8506 33.5459C26.3066 34.3619 25.6377 34.75 25 34.75C24.3623 34.75 23.6934 34.3619 23.1494 33.5459C22.6428 32.7858 22.2953 31.7163 22.2539 30.4961L22.25 30.25C22.25 28.9278 22.609 27.7648 23.1494 26.9541C23.6934 26.1381 24.3623 25.75 25 25.75C25.6377 25.75 26.3066 26.1381 26.8506 26.9541C27.391 27.7648 27.75 28.9278 27.75 30.25ZM48.75 30.25C48.75 31.5722 48.391 32.7352 47.8506 33.5459C47.3066 34.3619 46.6377 34.75 46 34.75C45.3623 34.75 44.6934 34.3619 44.1494 33.5459C43.6428 32.7858 43.2953 31.7163 43.2539 30.4961L43.25 30.25C43.25 28.9277 43.609 27.7648 44.1494 26.9541C44.6934 26.1381 45.3623 25.75 46 25.75C46.6377 25.75 47.3066 26.1381 47.8506 26.9541C48.391 27.7648 48.75 28.9277 48.75 30.25ZM29.25 30.25C29.25 28.6729 28.8248 27.2114 28.0986 26.1221C27.3759 25.0379 26.2953 24.25 25 24.25C23.7047 24.25 22.6241 25.0379 21.9014 26.1221C21.1752 27.2114 20.75 28.6729 20.75 30.25C20.75 31.8271 21.1752 33.2885 21.9014 34.3779C22.6241 35.4621 23.7047 36.25 25 36.25C26.2953 36.25 27.3759 35.4621 28.0986 34.3779C28.7795 33.3566 29.1958 32.0081 29.2451 30.5439L29.25 30.25ZM50.25 30.25C50.25 28.6729 49.8248 27.2115 49.0986 26.1221C48.3759 25.0379 47.2953 24.25 46 24.25C44.7047 24.25 43.6241 25.0379 42.9014 26.1221C42.1752 27.2115 41.75 28.6729 41.75 30.25C41.75 31.8271 42.1752 33.2885 42.9014 34.3779C43.6241 35.4621 44.7047 36.25 46 36.25C47.2953 36.25 48.3759 35.4621 49.0986 34.3779C49.7795 33.3565 50.1958 32.0081 50.2451 30.5439L50.25 30.25Z" stroke="black" stroke-width="1.5"/>
</svg>
