<svg width="70" height="71" viewBox="0 0 70 71" fill="none" xmlns="http://www.w3.org/2000/svg">
<path d="M35.0029 1.25C53.9197 1.25023 69.2549 16.5859 69.2549 35.5029C69.2546 54.4196 53.9196 69.7546 35.0029 69.7549C16.0859 69.7549 0.750233 54.4197 0.75 35.5029C0.75 16.5858 16.0858 1.25 35.0029 1.25ZM20.585 41.7559C20.2598 41.7524 19.9402 41.8292 19.6514 41.9775C19.3588 42.1279 19.107 42.3465 18.915 42.6123C18.7233 42.8779 18.5954 43.1848 18.5371 43.5068C18.4788 43.8289 18.4915 44.1611 18.5752 44.4775L18.5781 44.4893C20.6477 51.8389 27.1929 57.2557 35.0088 57.2559C42.5804 57.2559 48.961 52.1723 51.2188 45.1709L51.4268 44.4775C51.5104 44.1614 51.523 43.8297 51.4648 43.5078C51.4067 43.186 51.2784 42.8799 51.0869 42.6143C50.8952 42.3485 50.6447 42.1291 50.3525 41.9785C50.0636 41.8297 49.7435 41.7526 49.418 41.7559H20.585ZM22.75 20.7578C19.5438 20.7578 16.5968 22.0372 14.21 24.1602C13.1399 25.1116 12.9544 26.8359 13.7061 28.0527V28.0518C14.0948 28.6813 14.6883 29.1036 15.3613 29.2236C16.0389 29.3444 16.7376 29.1475 17.291 28.6553C18.8725 27.2489 20.751 26.458 22.75 26.458C24.749 26.458 26.6275 27.2489 28.209 28.6553C28.7624 29.1476 29.4611 29.3444 30.1387 29.2236C30.8116 29.1036 31.4051 28.6821 31.7939 28.0527C32.5455 26.8359 32.36 25.1116 31.29 24.1602C28.9032 22.0372 25.9562 20.7578 22.75 20.7578ZM47.251 20.7578C44.0447 20.7578 41.0978 22.0372 38.7109 24.1602C37.6409 25.1116 37.4553 26.8359 38.207 28.0527V28.0518C38.5958 28.6813 39.1893 29.1036 39.8623 29.2236C40.5398 29.3444 41.2386 29.1475 41.792 28.6553C43.3735 27.2489 45.252 26.458 47.251 26.458C49.25 26.458 51.1285 27.2489 52.71 28.6553C53.2633 29.1476 53.9621 29.3444 54.6396 29.2236C55.3125 29.1036 55.9061 28.6821 56.2949 28.0527C57.0465 26.8359 56.861 25.1116 55.791 24.1602C53.4042 22.0372 50.4572 20.7578 47.251 20.7578Z" fill="#20B66B" stroke="black" stroke-width="1.5"/>
</svg>
