<svg width="80" height="80" viewBox="0 0 80 80" fill="none" xmlns="http://www.w3.org/2000/svg">
<path d="M40 1.2002C49.4617 1.2002 56.4374 1.20293 61.7852 1.92188C66.9325 2.61391 70.4029 3.95062 73.041 6.45996L73.293 6.70605H73.2939C75.9628 9.37485 77.3638 12.9017 78.0781 18.2148C78.7971 23.5625 78.7998 30.5382 78.7998 40C78.7998 49.4618 78.7971 56.4374 78.0781 61.7852C77.3861 66.9324 76.0494 70.4029 73.54 73.041L73.2939 73.293L73.293 73.2939C70.6244 75.9625 67.0981 77.3638 61.7852 78.0781C56.4374 78.7971 49.4618 78.7998 40 78.7998C30.5382 78.7998 23.5625 78.7971 18.2148 78.0781C13.0676 77.3861 9.59717 76.0494 6.95898 73.54L6.70605 73.2939V73.293C4.03752 70.6244 2.63618 67.0981 1.92188 61.7852C1.20293 56.4374 1.2002 49.4617 1.2002 40C1.2002 30.5382 1.20293 23.5625 1.92188 18.2148C2.61391 13.0676 3.95064 9.59718 6.45996 6.95898L6.70605 6.70605C9.37485 4.03724 12.9016 2.63622 18.2148 1.92188C23.5625 1.20293 30.5382 1.2002 40 1.2002ZM56.9697 27.0303C55.3807 25.4413 52.8352 25.3912 51.1865 26.8809L51.0303 27.0303L33.999 44.0596L28.9697 39.0303C27.3296 37.3901 24.6704 37.3901 23.0303 39.0303C21.4413 40.6193 21.3912 43.1648 22.8809 44.8135L23.0303 44.9697L31.0303 52.9697C32.6706 54.6099 35.3295 54.61 36.9697 52.9697L56.9697 32.9697C58.61 31.3296 58.6099 28.6704 56.9697 27.0303Z" fill="#3DF598" stroke="#23211F" stroke-width="2.4"/>
</svg>
