<svg width="53" height="53" viewBox="0 0 53 53" fill="none" xmlns="http://www.w3.org/2000/svg">
<path d="M27.5827 8.70582C26.9707 9.26853 26.0295 9.26853 25.4174 8.70582C23.3425 6.79867 21.2682 6.4958 19.8771 6.96394C18.5428 7.41298 17.4334 8.70111 17.4334 10.9595C17.4334 11.957 18.0404 13.2119 19.2656 14.6321C20.4523 16.0078 22.0229 17.3131 23.4953 18.3864C25.2941 19.6976 25.7214 19.9435 26.5001 19.9435C27.2787 19.9435 27.706 19.6976 29.5049 18.3865C30.9773 17.3131 32.5479 16.0078 33.7346 14.6321C34.9598 13.2119 35.5667 11.957 35.5667 10.9595C35.5667 8.70111 34.4574 7.41296 33.123 6.96392C31.7321 6.4958 29.6576 6.79867 27.5827 8.70582Z" fill="#FD6023"/>
<path d="M30.4474 19.6794L31.3899 20.9723C32.9549 19.8315 34.7439 18.361 36.1577 16.7224C37.5328 15.1283 38.7667 13.1303 38.7667 10.9595H35.5667C35.5667 11.957 34.9598 13.2119 33.7346 14.6321C32.5479 16.0078 30.9773 17.3131 29.5049 18.3865L30.4474 19.6794Z" fill="#FD6023"/>
<path d="M26.5001 7.52784L27.5827 8.70582C29.6576 6.79867 31.7321 6.4958 33.123 6.96392C34.4574 7.41296 35.5667 8.70111 35.5667 10.9595H38.7667C38.7667 7.50666 36.9427 4.87301 34.1436 3.93106C31.7563 3.12763 28.9773 3.65796 26.5001 5.4613C26.8684 5.72942 27.23 6.02568 27.5827 6.34988L26.5001 7.52784Z" fill="#FD6023"/>
<path d="M25.4174 8.70582L26.5001 7.52784L25.4174 6.34988C25.7701 6.02568 26.1318 5.72942 26.5001 5.4613C24.0228 3.65795 21.2439 3.12763 18.8565 3.93106C16.0574 4.87301 14.2334 7.50668 14.2334 10.9595H17.4334C17.4334 8.70111 18.5428 7.41298 19.8771 6.96394C21.2682 6.4958 23.3425 6.79867 25.4174 8.70582Z" fill="#FD6023"/>
<path d="M21.6103 20.9723L22.5528 19.6794L23.4953 18.3864C22.0229 17.3131 20.4523 16.0078 19.2656 14.6321C18.0404 13.2119 17.4334 11.957 17.4334 10.9595H14.2334C14.2334 13.1303 15.4674 15.1283 16.8426 16.7223C18.2562 18.361 20.0453 19.8315 21.6103 20.9723Z" fill="#FD6023"/>
<path d="M22.5528 19.6794L21.6103 20.9723L21.8097 21.1179C23.3287 22.2278 24.5818 23.1435 26.5001 23.1435V21.5435V19.9435C25.7214 19.9435 25.2941 19.6976 23.4953 18.3864L22.5528 19.6794Z" fill="#FD6023"/>
<path d="M31.3899 20.9723L30.4474 19.6794L29.5049 18.3865C27.706 19.6976 27.2787 19.9435 26.5001 19.9435V21.5435V23.1435C28.4183 23.1435 29.6714 22.2279 31.1904 21.118L31.3899 20.9723Z" fill="#FD6023"/>
<path d="M26.5001 7.52784L27.5827 6.34988C27.23 6.02568 26.8684 5.72942 26.5001 5.4613C26.1318 5.72942 25.7701 6.02568 25.4174 6.34988L26.5001 7.52784Z" fill="#FD6023"/>
<path d="M26.5001 7.52784L25.4174 8.70582C26.0295 9.26853 26.9707 9.26853 27.5827 8.70582L26.5001 7.52784Z" fill="#FD6023"/>
<path d="M11.5674 44.3943H16.3886C18.5451 44.3943 20.7248 44.6189 22.8235 45.0513C26.5361 45.8161 30.4448 45.9087 34.1954 45.3018C36.0448 45.0023 37.8629 44.5447 39.5087 43.7502C40.9944 43.0332 42.8141 42.0224 44.0365 40.8903C45.2572 39.7598 46.5285 37.9096 47.4306 36.4632C48.2044 35.2231 47.8302 33.7016 46.6063 32.7774C45.247 31.7511 43.2297 31.7513 41.8705 32.778L38.0152 35.6903C36.521 36.819 34.889 37.8579 32.9447 38.1681C32.7109 38.2055 32.4659 38.2394 32.2104 38.269C32.1325 38.2857 32.0544 38.2946 31.9766 38.2946C32.0555 38.2865 32.1334 38.278 32.2104 38.269C32.5214 38.2025 32.8301 38.0105 33.12 37.7577C34.4922 36.56 34.5788 34.5417 33.3882 33.2043C33.1121 32.8941 32.7887 32.6353 32.4295 32.4209C26.4617 28.8615 17.1768 31.5725 11.5674 35.5505V44.3943Z" fill="#FAE0C2"/>
<path d="M32.2104 38.269C32.4659 38.2394 32.7109 38.2055 32.9447 38.1681C34.889 37.8579 36.521 36.819 38.0152 35.6903L41.8705 32.778C43.2297 31.7513 45.247 31.7511 46.6063 32.7774C47.8302 33.7016 48.2044 35.2231 47.4306 36.4632C46.5285 37.9096 45.2572 39.7598 44.0365 40.8903C42.8141 42.0224 40.9944 43.0332 39.5087 43.7502C37.8629 44.5447 36.0448 45.0023 34.1954 45.3018C30.4448 45.9087 26.5361 45.8161 22.8235 45.0513C20.7248 44.6189 18.5451 44.3943 16.3886 44.3943H11.5674V35.5505C17.1768 31.5725 26.4617 28.8615 32.4295 32.4209C32.7887 32.6353 33.1121 32.8941 33.3882 33.2043C34.5788 34.5417 34.4922 36.56 33.12 37.7577C32.8301 38.0105 32.5214 38.2025 32.2104 38.269ZM32.2104 38.269C32.1334 38.278 32.0555 38.2865 31.9766 38.2946M32.2104 38.269C32.1325 38.2857 32.0544 38.2946 31.9766 38.2946M31.9766 38.2946C30.86 38.4092 29.5539 38.4388 28.1046 38.3019" stroke="#FD6023" stroke-width="3.2" stroke-linecap="round"/>
<path d="M8.36699 30.7656C10.1343 30.7656 11.567 32.1983 11.567 33.9656V44.6323C11.567 46.3996 10.1343 47.8323 8.36699 47.8323C6.59968 47.8323 5.16699 46.3996 5.16699 44.6323V33.9656C5.16699 32.1983 6.59968 30.7656 8.36699 30.7656Z" fill="#FAE0C2" stroke="#FD6023" stroke-width="3.2"/>
</svg>
