<svg width="70" height="71" viewBox="0 0 70 71" fill="none" xmlns="http://www.w3.org/2000/svg">
<path fill-rule="evenodd" clip-rule="evenodd" d="M35 70.5C54.3298 70.5 70 54.8298 70 35.5C70 16.17 54.3298 0.5 35 0.5C15.67 0.5 0 16.17 0 35.5C0 54.8298 15.67 70.5 35 70.5ZM21.875 49.5C21.875 48.0503 23.0503 46.875 24.5 46.875H45.5C46.9497 46.875 48.125 48.0503 48.125 49.5C48.125 50.9497 46.9497 52.125 45.5 52.125H24.5C23.0503 52.125 21.875 50.9497 21.875 49.5ZM28 30.25C28 33.1494 26.433 35.5 24.5 35.5C22.567 35.5 21 33.1494 21 30.25C21 27.3505 22.567 25 24.5 25C26.433 25 28 27.3505 28 30.25ZM45.5 35.5C47.433 35.5 49 33.1494 49 30.25C49 27.3505 47.433 25 45.5 25C43.567 25 42 27.3505 42 30.25C42 33.1494 43.567 35.5 45.5 35.5Z" fill="#FFCE48"/>
<path d="M21.875 49.5C21.875 48.0503 23.0503 46.875 24.5 46.875H45.5C46.9497 46.875 48.125 48.0503 48.125 49.5C48.125 50.9497 46.9497 52.125 45.5 52.125H24.5C23.0503 52.125 21.875 50.9497 21.875 49.5Z" fill="white"/>
<path d="M28 30.25C28 33.1494 26.433 35.5 24.5 35.5C22.567 35.5 21 33.1494 21 30.25C21 27.3505 22.567 25 24.5 25C26.433 25 28 27.3505 28 30.25Z" fill="white"/>
<path d="M45.5 35.5C47.433 35.5 49 33.1494 49 30.25C49 27.3505 47.433 25 45.5 25C43.567 25 42 27.3505 42 30.25C42 33.1494 43.567 35.5 45.5 35.5Z" fill="white"/>
<path d="M35 1.25C53.9156 1.25 69.25 16.5842 69.25 35.5C69.25 54.4156 53.9156 69.75 35 69.75C16.0842 69.75 0.75 54.4156 0.75 35.5C0.75 16.5842 16.0842 1.25 35 1.25ZM47.375 49.5C47.375 50.4709 46.637 51.2693 45.6914 51.3652L45.5 51.375H24.5C23.5291 51.375 22.7307 50.637 22.6348 49.6914L22.625 49.5C22.625 48.4645 23.4645 47.625 24.5 47.625H45.5C46.5355 47.625 47.375 48.4645 47.375 49.5ZM27.25 30.25C27.25 31.5722 26.891 32.7352 26.3506 33.5459C25.8066 34.3619 25.1377 34.75 24.5 34.75C23.8623 34.75 23.1934 34.3619 22.6494 33.5459C22.1428 32.7858 21.7953 31.7163 21.7539 30.4961L21.75 30.25C21.75 28.9278 22.109 27.7648 22.6494 26.9541C23.1934 26.1381 23.8623 25.75 24.5 25.75C25.1377 25.75 25.8066 26.1381 26.3506 26.9541C26.891 27.7648 27.25 28.9278 27.25 30.25ZM48.25 30.25C48.25 31.5722 47.891 32.7352 47.3506 33.5459C46.8066 34.3619 46.1377 34.75 45.5 34.75C44.8623 34.75 44.1934 34.3619 43.6494 33.5459C43.1428 32.7858 42.7953 31.7163 42.7539 30.4961L42.75 30.25C42.75 28.9277 43.109 27.7648 43.6494 26.9541C44.1934 26.1381 44.8623 25.75 45.5 25.75C46.1377 25.75 46.8066 26.1381 47.3506 26.9541C47.891 27.7648 48.25 28.9277 48.25 30.25ZM48.875 49.5C48.875 47.6361 47.3639 46.125 45.5 46.125H24.5C22.636 46.125 21.125 47.6361 21.125 49.5C21.125 51.3639 22.636 52.875 24.5 52.875H45.5C47.3056 52.875 48.7806 51.457 48.8711 49.6738L48.875 49.5ZM28.75 30.25C28.75 28.6729 28.3248 27.2114 27.5986 26.1221C26.8759 25.0379 25.7953 24.25 24.5 24.25C23.2047 24.25 22.1241 25.0379 21.4014 26.1221C20.6752 27.2114 20.25 28.6729 20.25 30.25C20.25 31.8271 20.6752 33.2885 21.4014 34.3779C22.1241 35.4621 23.2047 36.25 24.5 36.25C25.7953 36.25 26.8759 35.4621 27.5986 34.3779C28.2795 33.3566 28.6958 32.0081 28.7451 30.5439L28.75 30.25ZM49.75 30.25C49.75 28.6729 49.3248 27.2115 48.5986 26.1221C47.8759 25.0379 46.7953 24.25 45.5 24.25C44.2047 24.25 43.1241 25.0379 42.4014 26.1221C41.6752 27.2115 41.25 28.6729 41.25 30.25C41.25 31.8271 41.6752 33.2885 42.4014 34.3779C43.1241 35.4621 44.2047 36.25 45.5 36.25C46.7953 36.25 47.8759 35.4621 48.5986 34.3779C49.2795 33.3565 49.6958 32.0081 49.7451 30.5439L49.75 30.25Z" stroke="black" stroke-width="1.5"/>
</svg>
