<svg width="56" height="56" viewBox="0 0 56 56" fill="none" xmlns="http://www.w3.org/2000/svg">
<g clip-path="url(#clip0_1_11395)">
<path d="M48.386 19.1186C51.5091 19.1186 54.041 16.5868 54.041 13.4636C54.041 10.3404 51.5091 7.80859 48.386 7.80859C45.2628 7.80859 42.731 10.3404 42.731 13.4636C42.731 16.5868 45.2628 19.1186 48.386 19.1186Z" fill="#4F59CA"/>
<path d="M47.1678 45.9149H46.2978C41.6433 45.9149 37.9023 42.1304 37.9023 37.5194V24.2084C37.9023 22.8599 38.9898 21.8159 40.2948 21.8159H53.1708C54.5193 21.8159 55.5633 22.9034 55.5633 24.2084V37.4759C55.6068 42.1304 51.8223 45.9149 47.1678 45.9149Z" fill="#4F59CA"/>
<path d="M30.6379 18.9882C35.1305 18.9882 38.7724 15.3463 38.7724 10.8537C38.7724 6.36118 35.1305 2.71924 30.6379 2.71924C26.1454 2.71924 22.5034 6.36118 22.5034 10.8537C22.5034 15.3463 26.1454 18.9882 30.6379 18.9882Z" fill="#7B82EA"/>
<path d="M30.6815 53.4404H29.2895C21.9815 53.4404 16.022 47.4809 16.022 40.1729V23.8604C16.022 22.7729 16.9355 21.8594 18.023 21.8594H41.948C43.0355 21.8594 43.949 22.7729 43.949 23.8604V40.1729C43.949 47.4809 38.033 53.4404 30.6815 53.4404Z" fill="#7B82EA"/>
<path d="M25.9401 42.6085H2.88507C1.36257 42.6085 0.101074 41.347 0.101074 39.8245V17.1175C0.101074 15.595 1.36257 14.3335 2.88507 14.3335H25.9401C27.4626 14.3335 28.7241 15.595 28.7241 17.1175V39.8245C28.7241 41.347 27.5061 42.6085 25.9401 42.6085Z" fill="#4C53BB"/>
<path d="M12.8463 23.2514H8.32227V20.8589H20.2848V23.2514H15.7608V36.4319H12.8898V23.2514H12.8463Z" fill="white"/>
<path opacity="0.2" d="M28.7677 21.8594V39.7814C28.7677 41.3039 27.5062 42.5654 25.9837 42.5654H16.2397L16.8922 45.0449H28.3327C29.8552 45.0449 31.1167 43.7834 31.1167 42.2609V21.8594H28.7677Z" fill="black"/>
</g>
<defs>
<clipPath id="clip0_1_11395">
<rect width="55.68" height="55.68" fill="white" transform="translate(0.0576172 0.32666)"/>
</clipPath>
</defs>
</svg>
