<svg width="70" height="71" viewBox="0 0 70 71" fill="none" xmlns="http://www.w3.org/2000/svg">
<path fill-rule="evenodd" clip-rule="evenodd" d="M35 70.5C54.3298 70.5 70 54.8298 70 35.5C70 16.17 54.3298 0.5 35 0.5C15.67 0.5 0 16.17 0 35.5C0 54.8298 15.67 70.5 35 70.5ZM19.4251 27.1001C18.2653 26.2303 18.0303 24.5849 18.9001 23.4251C19.77 22.2653 21.4153 22.0303 22.5751 22.9001L29.575 28.1501C30.2361 28.646 30.625 29.424 30.625 30.25C30.625 31.0763 30.2361 31.8544 29.575 32.35L22.5751 37.6C21.4153 38.4701 19.77 38.2349 18.9001 37.075C18.0303 35.9155 18.2653 34.2701 19.4251 33.4L23.6251 30.25L19.4251 27.1001ZM51.1 23.4251C51.9701 24.5849 51.7349 26.2303 50.575 27.1001L46.375 30.25L50.575 33.4C51.7349 34.2701 51.9701 35.9155 51.1 37.075C50.2303 38.2349 48.5849 38.4701 47.425 37.6L40.425 32.35C39.7642 31.8544 39.375 31.0763 39.375 30.25C39.375 29.424 39.7642 28.646 40.425 28.1501L47.425 22.9001C48.5849 22.0303 50.2303 22.2653 51.1 23.4251ZM47.3564 51.3564C46.3312 52.3815 44.6691 52.3815 43.6439 51.3564L41.9986 49.711C40.0358 51.5636 36.9625 51.5632 35 49.7096C33.0379 51.5632 29.9645 51.5636 28.0017 49.711L26.3563 51.3564C25.3312 52.3815 23.6691 52.3815 22.644 51.3564C21.6189 50.3312 21.6189 48.6691 22.644 47.644L24.394 45.8939C26.3506 43.9374 29.5015 43.9031 31.5 45.791C33.4632 43.9367 36.5372 43.9367 38.5 45.791C40.4988 43.9031 43.6496 43.9374 45.6064 45.8939L47.3564 47.644C48.3815 48.6691 48.3815 50.3312 47.3564 51.3564Z" fill="#F53D67"/>
<path d="M47.3564 51.3564C46.3312 52.3815 44.6691 52.3815 43.6439 51.3564L41.9986 49.711C40.0358 51.5636 36.9625 51.5632 35 49.7096C33.0379 51.5632 29.9645 51.5636 28.0017 49.711L26.3563 51.3564C25.3312 52.3815 23.6691 52.3815 22.644 51.3564C21.6189 50.3312 21.6189 48.6691 22.644 47.644L24.394 45.8939C26.3506 43.9374 29.5015 43.9031 31.5 45.791C33.4632 43.9367 36.5372 43.9367 38.5 45.791C40.4988 43.9031 43.6496 43.9374 45.6064 45.8939L47.3564 47.644C48.3815 48.6691 48.3815 50.3312 47.3564 51.3564Z" fill="white"/>
<path d="M51.1 23.4251C51.9701 24.5849 51.7349 26.2303 50.575 27.1001L46.375 30.25L50.575 33.4C51.7349 34.2701 51.9701 35.9155 51.1 37.075C50.2303 38.2349 48.5849 38.4701 47.425 37.6L40.425 32.35C39.7642 31.8544 39.375 31.0763 39.375 30.25C39.375 29.424 39.7642 28.646 40.425 28.1501L47.425 22.9001C48.5849 22.0303 50.2303 22.2653 51.1 23.4251Z" fill="white"/>
<path d="M19.4251 27.1001C18.2653 26.2303 18.0303 24.5849 18.9001 23.4251C19.77 22.2653 21.4153 22.0303 22.5751 22.9001L29.575 28.1501C30.2361 28.646 30.625 29.424 30.625 30.25C30.625 31.0763 30.2361 31.8544 29.575 32.35L22.5751 37.6C21.4153 38.4701 19.77 38.2349 18.9001 37.075C18.0303 35.9155 18.2653 34.2701 19.4251 33.4L23.6251 30.25L19.4251 27.1001Z" fill="white"/>
<path d="M35 1.25C53.9156 1.25 69.25 16.5842 69.25 35.5C69.25 54.4156 53.9156 69.75 35 69.75C16.0842 69.75 0.75 54.4156 0.75 35.5C0.75 16.5842 16.0842 1.25 35 1.25ZM38.499 44.8135C36.4294 43.2642 33.5696 43.2639 31.5 44.8135C29.286 43.1558 26.1654 43.2703 24.0781 45.1592L23.8633 45.3633L22.1133 47.1133C20.8365 48.3902 20.7971 50.4359 21.9941 51.7607L22.1133 51.8867C23.3901 53.1635 25.4359 53.2037 26.7607 52.0068L26.8867 51.8867L28.0498 50.7227C30.1155 52.2358 32.9467 52.2241 35 50.6865C37.0534 52.224 39.8845 52.2356 41.9502 50.7227L43.1133 51.8867C44.3901 53.1635 46.4358 53.2037 47.7607 52.0068L47.8867 51.8867C49.1636 50.6099 49.2038 48.5641 48.0068 47.2393L47.8867 47.1133L46.1367 45.3633L45.9219 45.1592C43.8342 43.2703 40.7133 43.1553 38.499 44.8135ZM39.0146 46.3359C40.7193 44.7259 43.4072 44.7561 45.0762 46.4248V46.4238L46.8262 48.1738C47.5126 48.8603 47.5556 49.9471 46.9551 50.6836L46.8262 50.8262C46.1397 51.5127 45.0529 51.5558 44.3164 50.9551L44.1738 50.8262L42.5293 49.1807L42.0137 48.665L41.4834 49.166C39.8619 50.696 37.3514 50.7431 35.6748 49.3076L35.5146 49.1641L35 48.6777L34.4854 49.1641C32.8124 50.7445 30.1904 50.7455 28.5166 49.166L27.9863 48.665L27.4717 49.1807L25.8262 50.8262C25.094 51.5584 23.9061 51.5584 23.1738 50.8262H23.1748C22.4882 50.1396 22.445 49.0529 23.0459 48.3164L23.1748 48.1738L24.9248 46.4238L24.9238 46.4229C26.5927 44.7547 29.2812 44.7261 30.9854 46.3359L31.5 46.8223L32.0146 46.3359C33.6888 44.7546 36.3116 44.7547 37.9854 46.3359L38.5 46.8223L39.0146 46.3359ZM29.875 30.25C29.875 30.7667 29.6625 31.2569 29.293 31.6084L29.125 31.75L22.125 37C21.2967 37.6214 20.1214 37.4536 19.5 36.625L19.3926 36.4658C18.935 35.7064 19.0754 34.7244 19.7275 34.123L19.875 34L24.0752 30.8496L24.875 30.25L24.0752 29.6504L19.875 26.5L19.7275 26.377C19.0756 25.7758 18.9349 24.7938 19.3926 24.0342L19.5 23.875C20.0824 23.0985 21.1519 22.9023 21.9658 23.3926L22.125 23.5L29.125 28.75C29.5972 29.1041 29.875 29.66 29.875 30.25ZM51.6992 22.9746C50.6157 21.5305 48.5969 21.2017 47.1162 22.1992L46.9746 22.2998L39.9746 27.5498C39.1252 28.1871 38.625 29.1878 38.625 30.25C38.625 31.2462 39.0652 32.1873 39.8203 32.8262L39.9746 32.9502L46.9746 38.2002C48.4194 39.284 50.4507 39.0339 51.5928 37.6611L51.7002 37.5254C52.7841 36.0809 52.5334 34.0506 51.1611 32.9082L51.0254 32.7998L47.624 30.25L51.0254 27.7002C52.4699 26.6167 52.7989 24.5971 51.8008 23.1162L51.7002 22.9746H51.6992ZM31.375 30.25C31.375 29.188 30.8754 28.1873 30.0254 27.5498L23.0254 22.2998L22.8838 22.1992C21.4508 21.2338 19.5137 21.5109 18.4082 22.8389L18.2998 22.9756C17.2168 24.4202 17.4665 26.4507 18.8389 27.5928L18.9756 27.7002L22.375 30.25L18.9756 32.7998H18.9746C17.5303 33.8835 17.2015 35.9032 18.1992 37.3838L18.2998 37.5254C19.3832 38.9699 21.4029 39.2988 22.8838 38.3008L23.0254 38.2002L30.0254 32.9502L30.0244 32.9492C30.8215 32.3517 31.3111 31.4358 31.3691 30.4482L31.375 30.25ZM40.125 30.25C40.125 29.7339 40.3375 29.2434 40.707 28.8916L40.875 28.75L47.875 23.5C48.6517 22.9176 49.733 23.029 50.377 23.7275L50.5 23.875C51.0826 24.6515 50.9712 25.7328 50.2725 26.377L50.125 26.5L45.9248 29.6504L45.125 30.25L45.9248 30.8496L50.125 34C50.9019 34.5828 51.0979 35.6522 50.6074 36.4658L50.5 36.625C49.8788 37.4535 48.7035 37.6215 47.875 37L40.875 31.75L40.707 31.6084C40.3905 31.3071 40.1889 30.9039 40.1377 30.4697L40.125 30.25Z" stroke="black" stroke-width="1.5"/>
</svg>
