<svg width="68" height="72" viewBox="0 0 68 72" fill="none" xmlns="http://www.w3.org/2000/svg">
<path d="M42.6654 50.0549C42.6131 49.336 42.5781 48.616 42.5604 47.8954C50.2054 47.1127 55.5709 45.2801 55.5709 43.1417C55.5499 43.1417 55.5529 43.0517 55.5529 43.0187C49.8365 37.8661 60.5076 1.26991 40.6439 2.00772C38.7525 0.58707 36.4194 -0.118397 34.0577 0.0162499H34.0817C7.17587 2.04971 19.0737 36.6155 12.9403 43.1387H12.9283C12.9523 45.2322 18.1349 47.0317 25.558 47.8355C25.537 48.3453 25.492 48.9782 25.396 50.0369C22.3158 58.3447 1.51638 56.0173 0.556641 72H67.4208C66.464 56.0143 45.7486 58.3417 42.6654 50.0549Z" fill="black"/>
</svg>
