<svg width="252" height="99" viewBox="0 0 252 99" fill="none" xmlns="http://www.w3.org/2000/svg">
<path d="M110.735 63.9638C112.585 67.9702 114.26 72.0737 115.585 76.2666C112.984 72.8218 110.307 69.4838 107.454 66.2417L107.445 66.2322L107.437 66.2228C106.632 65.3314 105.865 64.4225 105.076 63.4861C104.915 63.2953 104.753 63.1033 104.589 62.9101C103.638 61.7857 102.648 60.6326 101.576 59.521C100.922 58.8261 100.274 58.1461 99.6322 57.473C98.2533 56.0266 96.9045 54.6118 95.5952 53.1487L95.5484 53.0963L95.4979 53.0473C94.2738 51.859 93.0504 50.6356 91.8185 49.4038C88.9335 46.5187 86.0023 43.5875 82.9081 40.9533C82.5074 40.5913 82.0986 40.2162 81.6831 39.835C80.0123 38.3019 78.2335 36.6696 76.4405 35.3927C75.6264 34.7595 74.7871 34.0821 73.9313 33.3915C72.7041 32.4011 71.443 31.3833 70.1738 30.429L70.1276 30.3943L70.0795 30.3623L62.6378 25.4121L62.6326 25.4086L61.7141 24.7934L61.7098 24.7905L61.4895 24.6421L61.4826 24.6375L61.3748 24.5642L61.351 24.548L61.3267 24.5325L61.2673 24.4946L61.2291 24.5519L61.0867 24.4817L59.5265 23.6936C58.3509 23.0382 57.17 22.5693 56.1201 22.153L56.1165 22.1516C51.5835 20.3647 46.9462 19.5642 42.4794 19.8785L42.4463 19.8809L42.4133 19.8843C38.0604 20.336 33.7449 21.6415 30.0063 24.1564L29.9986 24.1616L29.9909 24.1669C26.4334 26.6084 23.1987 29.8829 21.2638 33.8683C19.2405 37.7575 18.4669 42.0126 18.9005 46.1328L18.9048 46.1737L18.9108 46.2143C19.4996 50.2214 21.0179 54.3895 24.1348 58.1537L24.1412 58.1615L24.1478 58.1693C25.6315 59.9244 27.3078 61.6912 29.252 63.3341L29.2958 63.3712L29.3416 63.4056C29.7307 63.6978 30.1177 64.0044 30.528 64.3294C30.5996 64.3862 30.672 64.4435 30.7451 64.5014C31.2263 64.8819 31.7383 65.2832 32.2612 65.6585L32.2934 65.6816L32.3265 65.7034L35.2315 67.6187L35.2746 67.6471L35.319 67.6733C36.0998 68.1321 37.0144 68.6229 37.8858 69.0905C38.3527 69.341 38.8073 69.585 39.2223 69.8138L39.2292 69.8176L39.2362 69.8214L39.8825 70.1711C39.9013 70.1855 39.9186 70.1985 39.9297 70.2066C39.9496 70.2206 39.9856 70.2451 40.0015 70.2556C40.0366 70.2784 40.0653 70.2955 40.0818 70.3052C40.0998 70.3157 40.115 70.3242 40.1255 70.33C40.1601 70.3491 40.1882 70.3632 40.1959 70.3671L40.1965 70.3674C40.2167 70.3775 40.2336 70.3856 40.2392 70.3882L40.2669 70.4014L40.295 70.4138L40.5287 70.5165L40.5332 70.5185L40.5347 70.5191L40.5736 70.5364C40.577 70.5379 40.5807 70.5396 40.5848 70.5414L41.0014 70.7261L41.004 70.7272L42.9046 71.5731L42.9205 71.5802L42.9365 71.587C43.8282 71.9654 44.7838 72.4045 45.773 72.859C47.3675 73.5918 49.0494 74.3646 50.6916 74.988C50.6927 74.9884 50.6938 74.9888 50.6949 74.9892L58.6787 78.0582L58.7106 78.0705L58.7429 78.0817L66.9478 80.9178L66.9551 80.9203L66.9623 80.9227C71.2354 82.3632 75.5553 83.7393 79.8889 85.1198C81.1639 85.526 82.4401 85.9325 83.7166 86.3412C86.2027 87.1564 88.6336 87.9045 91.0501 88.6482C94.2474 89.6322 97.4194 90.6084 100.66 91.7219L100.671 91.7254L109.169 94.5928C109.734 94.8095 110.298 95.0245 110.859 95.2387C111.193 95.3666 111.528 95.4941 111.861 95.6217L100.14 94.8678L100.132 94.8673L100.124 94.8669C95.3184 94.5961 90.5508 94.1314 85.7052 93.6591C84.6066 93.552 83.504 93.4445 82.3961 93.3388L82.3858 93.3379L82.3755 93.337C79.446 93.0881 76.5097 92.733 73.5646 92.3035C72.5557 92.1564 71.5771 92.0287 70.6157 91.9032C68.6187 91.6425 66.6955 91.3915 64.7272 90.9964L64.7092 90.9927L64.691 90.9894L55.7796 89.3708L46.8593 87.2243L46.847 87.2213L46.8347 87.2185C44.8614 86.77 42.9517 86.1368 40.9398 85.4698C39.9909 85.1552 39.0193 84.8331 38.0075 84.5193L35.7696 83.7904L35.7692 83.7903L35.2101 83.6084L35.2058 83.6069L35.0091 83.5424L34.5146 83.3317L34.5028 83.3267L34.4909 83.3218L33.4729 82.9035C33.4708 82.9026 33.4686 82.9017 33.4664 82.9008C32.9383 82.6796 32.4468 82.4806 31.9676 82.2866C31.1226 81.9446 30.3162 81.6181 29.415 81.2126L24.6947 78.7129C23.6511 78.1005 22.6836 77.4609 21.6618 76.7853C21.2479 76.5117 20.825 76.2321 20.3845 75.946C17.5843 73.9581 14.8935 71.6804 12.44 69.0283L12.4389 69.027C7.55593 63.7579 3.69018 56.6015 2.43846 48.7491C1.24327 40.8848 2.48609 32.5927 5.96617 25.8102L5.97571 25.7917L5.98485 25.7729C9.36955 18.8226 14.5762 13.0389 20.844 9.01112L20.844 9.01114L20.8526 9.00558C27.0881 4.95339 34.4369 2.71682 41.7478 2.48173L41.7542 2.4815C49.0565 2.22335 56.2155 4.11312 62.4595 7.19227L62.5234 7.22389C64.1557 8.03149 65.6113 8.75175 66.9028 9.65595L66.9305 9.67537L66.9589 9.69385L69.1922 11.1473L69.1961 11.1498L69.7275 11.4974L70.1605 11.7972L70.1612 11.7977L70.2599 11.8782L70.4684 12.0521L70.4759 12.0584L71.3349 12.768L71.3404 12.7727L78.1652 18.4532C78.2794 18.5659 78.3936 18.6787 78.5078 18.7916C83.0736 23.3006 87.7215 27.8907 91.1849 32.5469L91.22 32.5942L91.2579 32.6393C94.9127 36.9921 98.0271 41.7194 101.194 46.5259C101.456 46.9241 101.719 47.3228 101.982 47.7219C105.144 53.0644 108.139 58.4138 110.735 63.9638Z" fill="#F53D3D" stroke="black" stroke-width="4" stroke-linecap="round"/>
<path d="M147.924 94.8354C145.539 94.9976 143.147 95.1603 140.748 95.3138C141.312 95.0899 141.878 94.8651 142.446 94.6381L150.913 91.6599L150.921 91.6568C154.085 90.5278 157.15 89.5459 160.241 88.5559C162.729 87.7591 165.233 86.9572 167.817 86.0691C167.82 86.0681 167.822 86.0672 167.825 86.0662L184.495 80.5008L184.513 80.4948L184.531 80.4885L192.715 77.5828L192.749 77.5707L192.783 77.5572L200.723 74.4085C200.726 74.4072 200.729 74.4059 200.733 74.4047C202.478 73.733 204.214 72.9206 205.863 72.1483C206.763 71.7274 207.636 71.3184 208.472 70.9505L208.486 70.9444L208.5 70.9381L210.389 70.0728L210.395 70.07L210.862 69.8579L210.873 69.8531L211.11 69.7435L211.122 69.7382L211.133 69.7327C211.138 69.7305 211.151 69.7242 211.167 69.7166L211.167 69.7163C211.173 69.7135 211.195 69.7025 211.222 69.6879C211.231 69.6834 211.243 69.6766 211.258 69.6682C211.266 69.6639 211.277 69.6575 211.292 69.6491C211.303 69.6427 211.315 69.6352 211.329 69.6268C211.344 69.6176 211.378 69.5958 211.397 69.583C211.418 69.5687 211.462 69.5365 211.499 69.5092L212.141 69.1527L212.147 69.149L215.996 67.0309L216.076 66.9873L216.151 66.9366L219.027 64.996L219.057 64.9759L219.086 64.9548C219.607 64.5752 220.116 64.1684 220.593 63.7835C220.67 63.7214 220.746 63.66 220.821 63.5992C221.222 63.2743 221.6 62.9688 221.98 62.6777L222.033 62.6374L222.083 62.5936C223.951 60.9557 225.665 59.2452 227.152 57.4206L227.157 57.4135L227.163 57.4065C230.178 53.6362 231.745 49.5229 232.3 45.4904L232.31 45.4207L232.315 45.3505C232.439 43.4923 232.509 41.395 232.001 39.2591C231.932 38.6262 231.769 38.0544 231.636 37.6123C231.597 37.4855 231.562 37.3706 231.529 37.2643C231.421 36.9156 231.343 36.6606 231.285 36.3867L231.234 36.1422L231.125 35.9177C230.994 35.6506 230.894 35.3901 230.761 35.0431C230.721 34.939 230.678 34.8271 230.63 34.705C230.451 34.2471 230.217 33.6789 229.868 33.109C227.89 29.2518 224.768 25.9321 221.151 23.4989L221.139 23.4907L221.127 23.4827C217.398 21.0525 213.114 19.6281 208.67 19.2363L208.648 19.2343L208.626 19.2329C204.174 18.9408 199.502 19.6862 194.942 21.5613C194.843 21.5999 194.742 21.6391 194.639 21.6791C193.693 22.0455 192.574 22.4787 191.499 23.0998L189.948 23.8986L189.936 23.9048L189.766 23.9909L189.73 23.9381L189.67 23.9782L189.664 23.9823L189.553 24.0581L189.549 24.0603L189.319 24.2161L189.314 24.2195L188.392 24.8474L188.383 24.8534C185.944 26.5334 183.475 28.1741 180.988 29.8108L180.897 29.8705L180.813 29.9397C179.597 30.9451 178.344 31.9308 177.07 32.9333C174.149 35.2324 171.114 37.6202 168.14 40.5375C165.016 43.2137 162.07 46.198 159.173 49.1333C157.984 50.3383 156.803 51.535 155.621 52.6988L155.589 52.7303L155.558 52.7633L149.569 59.2157C148.498 60.3389 147.516 61.5086 146.576 62.6395C146.476 62.7609 146.375 62.8818 146.276 63.0021C145.431 64.0207 144.617 65.0016 143.753 65.9526L143.737 65.9711L143.72 65.99C141.21 68.8963 138.831 71.8746 136.523 74.9419C137.746 71.2258 139.232 67.5763 140.866 64.0082L140.869 64.0011C143.39 58.4351 146.393 53.1265 149.496 47.7129C149.768 47.2943 150.04 46.8761 150.311 46.4585C153.43 41.6589 156.501 36.9329 160.092 32.5588L160.124 32.5202L160.153 32.48C163.696 27.6959 168.424 22.9123 173.059 18.2951C175.297 16.3566 177.543 14.4376 179.813 12.5582L179.813 12.5582L179.821 12.5514L180.668 11.8422L180.679 11.8329L180.885 11.6631L180.885 11.6632L180.894 11.6557L180.991 11.5749L181.424 11.2701L181.949 10.9188L184.167 9.4611L184.193 9.44441L184.217 9.42697C185.537 8.5013 187.014 7.72345 188.63 6.89352C194.862 3.81246 201.97 1.81268 209.242 2.01392C216.553 2.2321 223.936 4.30645 230.164 8.33168L230.172 8.33702L230.18 8.34229C233.314 10.324 236.195 12.75 238.774 15.5143C241.291 18.4147 243.539 21.4889 245.17 24.9279L245.185 24.9608L245.202 24.9932C248.724 31.7705 250.113 40.0504 248.919 47.9235C247.701 55.8107 243.937 63.0427 239.052 68.3147L239.05 68.3169C236.573 70.999 233.929 73.3516 231.148 75.3195C230.706 75.609 230.282 75.8922 229.867 76.1695C228.846 76.851 227.878 77.4973 226.835 78.1172L222.11 80.6471C220.962 81.1812 219.92 81.6135 218.798 82.0788C218.567 82.1746 218.332 82.2717 218.093 82.3714C218.092 82.3719 218.091 82.3725 218.089 82.373L217.066 82.7967L217.047 82.8042L217.029 82.8121L216.537 83.0273L216.351 83.0898L216.338 83.094L215.785 83.2752L215.782 83.2762L213.55 84.0122C212.412 84.3651 211.335 84.7292 210.288 85.0831C208.395 85.7234 206.601 86.3301 204.719 86.7756L204.706 86.7788L195.764 88.9598C193.83 89.3611 191.912 89.7064 189.965 90.0567C188.945 90.2403 187.917 90.4253 186.876 90.6203L186.862 90.623L186.848 90.6258C184.655 91.069 182.483 91.3614 180.236 91.6638C179.507 91.762 178.77 91.8612 178.021 91.967L178.02 91.9672C175.039 92.3907 172.123 92.7898 169.206 93.0353L169.194 93.0362L169.183 93.0373C167.884 93.1617 166.592 93.2892 165.307 93.4162C160.651 93.876 156.068 94.3286 151.446 94.5971L151.437 94.5976L151.428 94.5982C150.262 94.6765 149.094 94.7559 147.924 94.8354Z" fill="#F53D3D" stroke="black" stroke-width="4" stroke-linecap="round"/>
<path d="M126.801 71.4942L126.8 71.4942C120.897 71.5136 116.028 76.4733 116.047 82.6908C116.066 88.9094 120.967 93.8349 126.871 93.8156C132.782 93.7962 137.656 88.835 137.637 82.6174L126.801 71.4942ZM126.801 71.4942C132.709 71.4731 137.616 76.4014 137.637 82.6168L126.801 71.4942Z" fill="#F53D3D" stroke="black" stroke-width="4" stroke-linecap="round"/>
</svg>
