<svg width="35" height="38" viewBox="0 0 35 38" fill="none" xmlns="http://www.w3.org/2000/svg">
<g filter="url(#filter0_d_17_483)">
<path fill-rule="evenodd" clip-rule="evenodd" d="M12.1666 0.679939C10.9883 1.72494 10.9883 3.63661 10.9883 7.45827V25.8716C10.9883 29.6933 10.9883 31.6049 12.1666 32.6499C13.3449 33.6949 15.1466 33.3816 18.7499 32.7533L22.6333 32.0766C26.6233 31.3799 28.6183 31.0316 29.8033 29.5683C30.9883 28.1033 30.9883 25.9866 30.9883 21.7516V11.5783C30.9883 7.34494 30.9883 5.22827 29.8049 3.76327C28.6183 2.29994 26.6216 1.95161 22.6316 1.25661L18.7516 0.578273C15.1483 -0.0500606 13.3466 -0.363394 12.1683 0.681606M15.9883 13.6133C16.6783 13.6133 17.2383 14.1983 17.2383 14.9199V18.4099C17.2383 19.1316 16.6783 19.7166 15.9883 19.7166C15.2983 19.7166 14.7383 19.1316 14.7383 18.4099V14.9199C14.7383 14.1983 15.2983 13.6133 15.9883 13.6133Z" fill="#F5703D"/>
<path d="M8.56661 4.16504C5.13661 4.17004 3.34828 4.24504 2.20828 5.38504C0.988281 6.60504 0.988281 8.56837 0.988281 12.4984V20.8317C0.988281 24.76 0.988281 26.7234 2.20828 27.945C3.34828 29.0834 5.13661 29.16 8.56661 29.165C8.48828 28.125 8.48828 26.925 8.48828 25.6267V7.70337C8.48828 6.40337 8.48828 5.20337 8.56661 4.16504Z" fill="#F5703D"/>
</g>
<defs>
<filter id="filter0_d_17_483" x="0.988281" y="0" width="34" height="37.3315" filterUnits="userSpaceOnUse" color-interpolation-filters="sRGB">
<feFlood flood-opacity="0" result="BackgroundImageFix"/>
<feColorMatrix in="SourceAlpha" type="matrix" values="0 0 0 0 0 0 0 0 0 0 0 0 0 0 0 0 0 0 127 0" result="hardAlpha"/>
<feOffset dx="2" dy="2"/>
<feGaussianBlur stdDeviation="1"/>
<feComposite in2="hardAlpha" operator="out"/>
<feColorMatrix type="matrix" values="0 0 0 0 0.968627 0 0 0 0 0.551373 0 0 0 0 0.391373 0 0 0 0.4 0"/>
<feBlend mode="normal" in2="BackgroundImageFix" result="effect1_dropShadow_17_483"/>
<feBlend mode="normal" in="SourceGraphic" in2="effect1_dropShadow_17_483" result="shape"/>
</filter>
</defs>
</svg>
