<svg width="68" height="72" viewBox="0 0 68 72" fill="none" xmlns="http://www.w3.org/2000/svg">
<path d="M42.7368 49.887C42.5518 47.3665 42.4998 44.838 42.5808 42.312L42.5778 42.423C44.8347 40.0824 46.2426 37.0533 46.5768 33.819L46.5828 33.756C47.5998 33.672 49.2048 32.682 49.6728 28.758C49.8129 28.0822 49.7591 27.3805 49.5176 26.734C49.2761 26.0875 48.8567 25.5224 48.3078 25.104L48.2988 25.098C49.9548 20.118 53.3928 4.71 41.9358 3.12C40.7568 1.05 37.7388 0 33.8148 0C18.1158 0.288 16.2228 11.853 19.6548 25.098C19.1 25.519 18.6769 26.0896 18.4352 26.7427C18.1934 27.3957 18.1429 28.1042 18.2898 28.785L18.2868 28.761C18.7668 32.679 20.3598 33.675 21.3768 33.759C21.734 37.0293 23.1866 40.0827 25.4988 42.423C25.5729 44.9933 25.5148 47.5657 25.3248 50.13L25.3398 49.887C22.2258 58.239 1.26176 55.893 0.301758 72H67.6758C66.7098 55.893 45.8418 58.239 42.7338 49.887H42.7368Z" fill="black"/>
</svg>
