<svg width="41" height="47" viewBox="0 0 41 47" fill="none" xmlns="http://www.w3.org/2000/svg">
<g clip-path="url(#clip0_1928_154098)">
<path fill-rule="evenodd" clip-rule="evenodd" d="M15.1492 1.37464C13.5522 2.79092 13.5522 5.3818 13.5522 10.5613V35.5168C13.5522 40.6962 13.5522 43.2871 15.1492 44.7034C16.7462 46.1197 19.188 45.695 24.0716 44.8434L29.3346 43.9264C34.7423 42.9822 37.4461 42.5101 39.0521 40.5268C40.6581 38.5413 40.6581 35.6726 40.6581 29.9329V16.1451C40.6581 10.4077 40.6581 7.53897 39.0544 5.55347C37.4461 3.57022 34.74 3.09813 29.3324 2.1562L24.0738 1.23685C19.1903 0.385278 16.7485 -0.0393805 15.1515 1.3769M20.3287 18.9031C21.2639 18.9031 22.0228 19.696 22.0228 20.674V25.404C22.0228 26.3821 21.2639 27.1749 20.3287 27.1749C19.3936 27.1749 18.6346 26.3821 18.6346 25.404V20.674C18.6346 19.696 19.3936 18.9031 20.3287 18.9031Z" fill="#23211F"/>
<path d="M10.2699 6.09375C5.62124 6.10053 3.19752 6.20217 1.65248 7.74721C-0.000976293 9.40067 -0.000976562 12.0616 -0.000976562 17.3879V28.682C-0.000976562 34.006 -0.000976293 36.6669 1.65248 38.3226C3.19752 39.8654 5.62124 39.9693 10.2699 39.9761C10.1637 38.5666 10.1637 36.9402 10.1637 35.1806V10.8892C10.1637 9.12735 10.1637 7.501 10.2699 6.09375Z" fill="#23211F"/>
</g>
<defs>
<clipPath id="clip0_1928_154098">
<rect width="40.6588" height="46.08" fill="white"/>
</clipPath>
</defs>
</svg>
